<svg id="svg" version="1.1" xmlns="http://www.w3.org/2000/svg" xmlns:xlink="http://www.w3.org/1999/xlink" width="400" height="400" viewBox="0, 0, 400,400"><g id="svgg"><path id="path0" d="M18.598 200.000 C 18.598 310.110,18.644 355.155,18.700 300.100 C 18.756 245.045,18.756 154.955,18.700 99.900 C 18.644 44.845,18.598 89.890,18.598 200.000 M19.200 200.000 L 19.200 400.000 68.000 400.000 L 116.800 400.000 116.828 339.700 C 116.844 306.535,117.011 279.040,117.200 278.600 C 117.389 278.160,117.556 277.938,117.572 278.107 C 117.587 278.276,118.095 277.853,118.700 277.168 C 119.305 276.483,120.199 275.553,120.686 275.101 C 121.174 274.649,121.480 274.129,121.366 273.944 C 121.252 273.760,121.438 273.716,121.779 273.847 C 122.121 273.978,122.400 273.891,122.400 273.653 C 122.400 273.415,124.113 271.494,126.207 269.383 C 128.328 267.244,129.895 265.353,129.745 265.111 C 129.597 264.872,129.659 264.789,129.883 264.928 C 130.107 265.066,131.569 263.834,133.132 262.190 C 134.695 260.545,135.912 259.200,135.836 259.200 C 135.761 259.200,138.101 256.743,141.036 253.741 C 143.972 250.738,146.262 248.100,146.125 247.879 C 145.988 247.658,146.058 247.589,146.280 247.726 C 146.788 248.040,148.516 246.249,148.104 245.837 C 147.937 245.670,147.986 245.593,148.213 245.667 C 148.692 245.821,154.167 240.283,157.305 236.469 C 157.907 235.737,158.400 235.251,158.400 235.387 C 158.400 235.524,158.868 235.168,159.441 234.596 C 160.175 233.862,160.412 233.296,160.247 232.677 C 160.119 232.195,160.008 201.785,160.002 165.100 C 159.996 128.415,159.911 98.400,159.814 98.400 C 159.575 98.400,157.600 100.386,157.600 100.626 C 157.600 100.730,156.475 101.952,155.100 103.343 C 152.273 106.201,150.700 108.000,151.026 108.000 C 151.148 108.000,150.471 108.772,149.524 109.716 C 147.254 111.976,144.400 115.305,144.400 115.692 C 144.400 115.861,144.130 116.000,143.800 116.000 C 143.470 116.000,143.200 116.165,143.200 116.366 C 143.200 116.828,139.682 121.025,136.800 124.000 C 135.590 125.249,134.075 126.885,133.433 127.636 C 130.658 130.879,128.977 132.592,128.670 132.490 C 128.489 132.430,128.442 132.544,128.566 132.745 C 128.808 133.136,128.016 134.111,124.100 138.240 C 122.725 139.690,121.600 141.004,121.600 141.160 C 121.600 141.579,118.801 144.561,118.793 144.150 C 118.790 143.958,118.385 144.428,117.893 145.196 L 117.000 146.592 116.899 73.296 L 116.798 0.000 67.999 0.000 L 19.200 0.000 19.200 200.000 " stroke="none" fill="#fc7c43" fill-rule="evenodd"></path><path id="path1" d="M246.194 1.859 C 245.317 2.882,244.240 4.103,243.800 4.574 C 242.545 5.917,237.044 12.142,236.600 12.722 C 236.380 13.009,235.614 13.804,234.897 14.489 C 234.180 15.174,232.874 16.668,231.994 17.808 C 231.114 18.949,229.450 20.872,228.297 22.082 C 227.144 23.292,225.570 25.066,224.800 26.023 C 224.030 26.981,222.456 28.762,221.303 29.982 C 220.149 31.202,219.204 32.314,219.203 32.453 C 219.201 32.592,218.165 33.767,216.900 35.065 C 215.635 36.362,213.848 38.316,212.929 39.407 C 212.009 40.498,211.125 41.259,210.964 41.098 C 210.803 40.937,211.016 40.487,211.436 40.098 C 212.185 39.405,213.200 37.839,213.200 37.377 C 213.200 37.034,212.305 38.013,211.262 39.497 C 210.760 40.211,210.461 40.976,210.598 41.197 C 210.735 41.419,210.072 42.539,209.124 43.687 C 208.176 44.834,207.220 46.006,207.000 46.291 C 206.780 46.576,205.709 47.712,204.621 48.816 C 203.532 49.919,202.362 51.242,202.021 51.756 C 201.485 52.561,197.188 57.437,194.545 60.240 C 194.075 60.738,192.100 63.003,190.156 65.273 C 188.213 67.543,186.166 69.850,185.607 70.400 C 185.048 70.950,184.073 72.029,183.440 72.797 C 182.180 74.326,178.553 78.437,175.362 81.954 C 174.241 83.189,172.337 85.370,171.130 86.800 C 169.923 88.230,168.320 90.047,167.568 90.839 C 166.816 91.630,165.677 92.890,165.037 93.639 C 164.398 94.387,163.093 95.847,162.137 96.883 L 160.400 98.766 160.413 165.683 C 160.423 221.411,160.514 232.483,160.957 231.900 C 161.668 230.963,162.400 231.013,162.400 232.000 C 162.400 232.440,162.536 232.800,162.702 232.800 C 163.167 232.800,164.091 235.128,163.809 235.586 C 163.662 235.823,163.815 235.892,164.179 235.753 C 164.573 235.602,164.800 235.737,164.800 236.124 C 164.800 236.459,164.990 236.797,165.223 236.874 C 165.457 236.952,165.522 237.339,165.367 237.741 C 165.148 238.312,165.016 238.353,164.750 237.934 C 164.492 237.526,164.411 237.567,164.406 238.108 C 164.401 238.673,164.612 238.762,165.452 238.551 C 166.253 238.350,166.456 238.420,166.302 238.844 C 166.191 239.150,165.898 239.355,165.650 239.300 C 165.403 239.245,165.200 239.401,165.200 239.647 C 165.200 239.900,165.555 240.000,166.022 239.878 C 166.662 239.711,166.987 239.966,167.496 241.032 C 167.855 241.784,168.289 242.400,168.462 242.400 C 168.634 242.400,168.672 242.669,168.546 242.998 C 168.419 243.326,168.155 243.496,167.958 243.374 C 167.761 243.252,167.600 243.343,167.600 243.576 C 167.600 243.809,168.095 244.006,168.700 244.013 C 169.700 244.024,169.736 244.074,169.100 244.557 C 168.161 245.270,168.213 245.713,169.200 245.400 C 169.776 245.217,170.000 245.328,170.000 245.797 C 170.000 246.178,169.813 246.332,169.548 246.168 C 169.273 245.998,169.172 246.106,169.290 246.444 C 169.396 246.750,169.762 246.951,170.104 246.891 C 170.470 246.827,170.945 247.278,171.260 247.991 C 171.554 248.656,171.931 249.200,172.098 249.200 C 172.604 249.200,172.434 250.718,171.900 250.963 C 171.625 251.089,171.783 251.099,172.250 250.985 C 172.835 250.843,173.171 251.000,173.326 251.489 C 173.449 251.880,173.877 252.701,174.275 253.314 C 174.912 254.292,174.927 254.478,174.400 254.840 C 173.935 255.160,174.003 255.195,174.700 254.999 C 175.425 254.795,175.600 254.907,175.600 255.573 C 175.600 256.028,175.418 256.400,175.197 256.400 C 174.957 256.400,174.995 256.724,175.291 257.197 C 175.624 257.731,176.041 257.914,176.553 257.751 C 177.175 257.554,177.277 257.664,177.100 258.341 C 176.980 258.798,177.059 259.134,177.276 259.086 C 177.492 259.039,178.149 259.900,178.735 261.000 C 179.321 262.100,179.935 263.060,180.100 263.133 C 180.714 263.406,180.403 264.487,179.779 264.247 C 179.410 264.106,179.262 264.176,179.413 264.421 C 179.553 264.647,179.978 264.734,180.358 264.613 C 180.869 264.451,181.192 264.759,181.599 265.797 C 181.902 266.569,182.296 267.200,182.475 267.200 C 182.654 267.200,182.800 267.560,182.800 268.000 C 182.800 268.440,182.980 268.800,183.200 268.800 C 183.420 268.800,183.600 269.089,183.600 269.443 C 183.600 269.850,183.380 270.001,183.000 269.855 C 182.670 269.729,182.400 269.811,182.400 270.038 C 182.400 270.265,182.805 270.394,183.300 270.325 C 183.965 270.233,184.184 270.390,184.140 270.927 C 184.107 271.326,184.179 271.554,184.301 271.433 C 184.575 271.159,185.600 273.082,185.600 273.869 C 185.600 274.204,185.406 274.327,185.138 274.162 C 184.867 273.994,184.784 274.051,184.939 274.301 C 185.083 274.534,185.606 274.638,186.100 274.533 C 186.935 274.355,186.949 274.382,186.300 274.914 C 185.346 275.696,185.421 276.075,186.500 275.925 C 187.188 275.830,187.370 275.975,187.273 276.540 C 187.204 276.947,187.301 277.185,187.489 277.069 C 187.677 276.952,188.271 277.685,188.808 278.698 C 189.502 280.006,189.642 280.586,189.292 280.703 C 189.022 280.793,188.800 281.044,188.800 281.260 C 188.800 281.477,189.130 281.549,189.534 281.421 C 190.502 281.114,192.482 284.655,191.635 285.178 C 191.269 285.405,191.246 285.581,191.557 285.774 C 191.801 285.924,192.000 285.857,192.000 285.624 C 192.000 285.391,192.180 285.200,192.400 285.200 C 192.620 285.200,192.800 285.571,192.800 286.024 C 192.800 286.477,192.620 286.736,192.400 286.600 C 191.791 286.224,191.922 286.950,192.621 287.824 C 193.227 288.582,193.236 288.579,193.004 287.734 C 192.874 287.257,192.955 286.752,193.184 286.610 C 193.432 286.457,193.600 286.776,193.600 287.400 C 193.600 287.976,193.750 288.355,193.932 288.242 C 194.115 288.129,194.509 288.658,194.807 289.418 C 195.105 290.178,195.496 290.800,195.675 290.800 C 195.854 290.800,195.996 291.205,195.991 291.700 C 195.981 292.772,194.456 291.166,194.377 290.000 C 194.350 289.596,194.272 289.561,194.137 289.894 C 194.027 290.166,194.282 290.886,194.704 291.494 C 195.125 292.102,195.588 292.927,195.733 293.328 C 195.925 293.859,196.228 293.982,196.857 293.782 C 197.587 293.550,197.684 293.637,197.496 294.355 C 197.366 294.852,197.436 295.102,197.664 294.960 C 197.879 294.828,198.153 295.098,198.274 295.560 C 198.394 296.022,198.672 296.400,198.889 296.400 C 199.107 296.400,199.188 296.655,199.068 296.967 C 198.948 297.279,199.109 297.633,199.425 297.754 C 199.741 297.876,200.000 298.180,200.000 298.430 C 200.000 298.681,199.730 298.782,199.400 298.655 C 199.036 298.516,198.800 298.654,198.800 299.008 C 198.800 299.374,199.135 299.555,199.700 299.495 C 200.341 299.427,200.584 299.600,200.545 300.096 C 200.515 300.478,200.650 300.693,200.845 300.572 C 201.040 300.451,201.200 300.618,201.200 300.943 C 201.200 301.268,200.984 301.605,200.720 301.693 C 200.425 301.792,200.510 301.957,200.941 302.122 C 201.360 302.283,201.543 302.232,201.397 301.995 C 201.263 301.778,201.343 301.600,201.576 301.600 C 201.809 301.600,202.000 301.960,202.000 302.400 C 202.000 302.840,202.180 303.200,202.400 303.200 C 202.620 303.200,202.800 303.481,202.800 303.824 C 202.800 304.167,202.620 304.336,202.400 304.200 C 202.180 304.064,202.000 304.237,202.000 304.584 C 202.000 305.060,202.249 305.153,203.016 304.960 C 203.574 304.820,203.996 304.862,203.952 305.053 C 203.909 305.244,204.018 305.733,204.195 306.140 C 204.406 306.627,204.325 307.013,203.958 307.267 C 203.545 307.552,203.614 307.593,204.224 307.423 C 204.886 307.239,205.157 307.470,205.599 308.597 C 205.902 309.369,206.296 310.000,206.475 310.000 C 206.654 310.000,206.800 310.270,206.800 310.600 C 206.800 310.930,206.620 311.200,206.400 311.200 C 206.180 311.200,206.000 311.392,206.000 311.627 C 206.000 311.862,206.330 311.949,206.734 311.821 C 207.306 311.639,207.681 312.008,208.434 313.494 C 208.965 314.542,209.535 315.460,209.700 315.533 C 210.123 315.721,210.075 316.800,209.643 316.800 C 209.447 316.800,209.168 316.329,209.024 315.753 C 208.879 315.177,208.656 314.811,208.527 314.940 C 207.959 315.507,209.305 317.621,210.077 317.375 C 210.772 317.155,210.822 317.274,210.580 318.565 C 210.402 319.512,210.462 320.000,210.755 320.000 C 211.000 320.000,211.200 320.259,211.200 320.576 C 211.200 320.893,211.363 321.254,211.563 321.377 C 211.762 321.500,211.830 321.238,211.714 320.794 C 211.598 320.351,211.345 319.890,211.152 319.770 C 210.709 319.497,210.688 318.400,211.125 318.400 C 211.304 318.400,211.698 319.030,212.000 319.800 C 212.302 320.570,212.696 321.200,212.875 321.200 C 213.054 321.200,213.200 321.380,213.200 321.600 C 213.200 321.820,212.915 322.000,212.567 322.000 C 212.218 322.000,212.010 322.225,212.104 322.500 C 212.198 322.775,212.663 322.944,213.137 322.875 C 213.612 322.806,214.000 322.941,214.000 323.175 C 214.000 323.409,213.719 323.600,213.376 323.600 C 213.033 323.600,212.867 323.785,213.007 324.011 C 213.146 324.236,213.562 324.371,213.930 324.311 C 214.422 324.229,214.580 324.465,214.525 325.200 C 214.484 325.750,214.544 325.975,214.659 325.700 C 214.984 324.918,215.600 325.114,215.600 326.000 C 215.600 326.440,215.759 326.800,215.953 326.800 C 216.148 326.800,216.418 327.115,216.554 327.500 C 216.689 327.885,216.915 328.454,217.055 328.764 C 217.239 329.172,217.119 329.254,216.621 329.063 C 216.168 328.889,215.990 328.969,216.099 329.298 C 216.191 329.572,216.552 329.797,216.902 329.798 C 217.869 329.801,219.772 332.759,218.997 333.056 C 218.134 333.388,218.261 334.098,219.134 333.821 C 220.173 333.491,222.066 337.043,221.178 337.655 C 220.730 337.963,220.780 338.003,221.400 337.834 C 221.992 337.672,222.330 337.894,222.700 338.687 C 223.303 339.981,223.340 340.534,222.800 340.200 C 222.580 340.064,222.400 340.113,222.400 340.310 C 222.400 340.978,222.925 341.194,223.463 340.748 C 223.875 340.406,224.000 340.453,224.000 340.951 C 224.000 341.308,223.809 341.600,223.576 341.600 C 223.343 341.600,223.274 341.796,223.422 342.035 C 223.609 342.339,223.817 342.343,224.110 342.050 C 224.557 341.603,225.600 343.156,225.600 344.269 C 225.600 344.587,225.780 344.736,226.000 344.600 C 226.220 344.464,226.400 344.708,226.400 345.143 C 226.400 345.578,226.175 346.037,225.900 346.163 C 225.625 346.289,225.805 346.292,226.300 346.169 C 226.945 346.009,227.200 346.123,227.200 346.573 C 227.200 346.918,227.020 347.200,226.800 347.200 C 226.580 347.200,226.400 347.392,226.400 347.627 C 226.400 347.862,226.736 347.947,227.149 347.816 C 227.926 347.569,229.488 349.993,229.265 351.100 C 229.210 351.375,229.443 351.600,229.782 351.600 C 230.122 351.600,230.400 351.892,230.400 352.249 C 230.400 353.274,229.307 352.176,228.397 350.237 C 227.808 348.982,227.626 348.810,227.615 349.500 C 227.607 349.995,227.780 350.400,228.000 350.400 C 228.220 350.400,228.400 350.760,228.400 351.200 C 228.400 351.640,228.580 352.000,228.800 352.000 C 229.020 352.000,229.206 352.225,229.213 352.500 C 229.220 352.775,229.514 353.360,229.867 353.800 C 230.387 354.450,230.462 354.469,230.266 353.900 C 229.870 352.749,231.007 353.085,231.618 354.300 C 231.922 354.905,232.504 355.894,232.911 356.497 C 233.318 357.101,233.539 357.776,233.402 357.997 C 233.265 358.219,233.342 358.400,233.574 358.400 C 233.806 358.400,234.394 359.255,234.880 360.300 C 235.366 361.345,236.042 362.410,236.381 362.667 C 236.721 362.924,236.879 363.254,236.733 363.401 C 236.586 363.547,236.812 364.012,237.233 364.433 C 237.655 364.855,238.000 365.560,238.000 366.000 C 238.000 366.440,238.180 366.800,238.400 366.800 C 238.974 366.800,238.894 367.890,238.300 368.163 C 238.025 368.289,238.205 368.292,238.700 368.169 C 239.701 367.921,240.053 369.325,239.100 369.763 C 238.825 369.889,239.005 369.892,239.500 369.769 C 240.156 369.607,240.400 369.723,240.400 370.197 C 240.400 370.578,240.213 370.732,239.948 370.568 C 239.673 370.398,239.572 370.506,239.690 370.844 C 239.796 371.150,240.179 371.347,240.541 371.282 C 241.198 371.165,241.469 371.783,240.900 372.101 C 240.735 372.193,240.811 372.219,241.070 372.159 C 241.607 372.032,242.800 373.683,242.800 374.553 C 242.800 374.872,242.935 375.193,243.100 375.267 C 243.633 375.504,245.210 378.702,245.068 379.260 C 244.993 379.557,245.007 379.665,245.099 379.500 C 245.389 378.980,245.897 379.173,246.154 379.900 C 246.289 380.285,246.515 380.854,246.655 381.164 C 246.828 381.547,246.721 381.655,246.321 381.502 C 245.968 381.366,245.733 381.511,245.733 381.865 C 245.733 382.261,246.005 382.385,246.567 382.245 C 247.155 382.097,247.530 382.296,247.840 382.918 C 249.124 385.488,250.234 387.415,250.500 387.533 C 251.035 387.771,250.817 388.400,250.200 388.400 C 249.870 388.400,249.600 388.580,249.600 388.800 C 249.600 389.020,249.924 389.200,250.320 389.200 C 251.242 389.200,252.000 389.958,252.000 390.880 C 252.000 391.276,252.180 391.600,252.400 391.600 C 252.974 391.600,252.894 392.688,252.300 392.971 C 252.025 393.102,252.205 393.134,252.700 393.042 C 253.754 392.846,254.340 393.495,253.425 393.846 C 252.502 394.200,252.664 394.897,253.600 394.600 C 254.229 394.400,254.400 394.528,254.400 395.197 C 254.400 395.664,254.580 395.936,254.800 395.800 C 255.020 395.664,255.200 395.923,255.200 396.376 C 255.200 396.829,255.380 397.200,255.600 397.200 C 255.820 397.200,256.000 397.470,256.000 397.800 C 256.000 398.130,256.180 398.400,256.400 398.400 C 256.620 398.400,256.800 398.760,256.800 399.200 C 256.800 399.997,257.067 400.000,319.200 400.000 C 376.246 400.000,381.600 399.945,381.600 399.357 C 381.600 398.937,381.382 398.798,380.970 398.956 C 379.894 399.369,378.514 397.250,379.500 396.699 C 379.665 396.607,379.552 396.595,379.249 396.672 C 378.946 396.750,378.451 396.609,378.149 396.358 C 377.525 395.840,377.387 394.221,378.000 394.600 C 378.220 394.736,378.400 394.644,378.400 394.397 C 378.400 394.128,378.077 394.049,377.600 394.200 C 376.746 394.471,376.458 393.789,377.300 393.488 C 377.575 393.390,377.669 393.169,377.510 392.998 C 377.350 392.826,376.977 392.887,376.680 393.133 C 376.255 393.486,376.026 393.287,375.596 392.190 C 375.296 391.426,374.885 390.800,374.682 390.800 C 374.479 390.800,374.416 390.305,374.541 389.700 C 374.666 389.095,374.670 388.825,374.551 389.100 C 374.248 389.795,373.600 389.727,373.600 389.000 C 373.600 388.670,373.420 388.400,373.200 388.400 C 372.980 388.400,372.800 388.164,372.800 387.875 C 372.800 387.587,372.440 386.964,372.000 386.492 C 371.058 385.481,370.946 384.617,371.800 384.945 C 372.570 385.240,372.545 384.812,371.733 383.800 C 371.213 383.150,371.138 383.131,371.334 383.700 C 371.758 384.930,370.503 384.481,369.936 383.200 C 369.644 382.540,369.269 382.000,369.102 382.000 C 368.936 382.000,368.800 381.820,368.800 381.600 C 368.800 381.380,369.081 381.200,369.424 381.200 C 369.767 381.200,369.928 381.008,369.783 380.773 C 369.638 380.538,369.294 380.432,369.018 380.538 C 368.743 380.643,368.221 380.383,367.859 379.960 C 367.045 379.010,367.034 378.800,367.800 378.800 C 368.461 378.800,368.610 378.177,368.034 377.821 C 367.833 377.697,367.574 377.821,367.459 378.098 C 367.310 378.456,367.071 378.377,366.625 377.824 C 365.932 376.963,365.773 375.812,366.400 376.200 C 366.620 376.336,366.800 376.237,366.800 375.981 C 366.800 375.724,366.559 375.607,366.264 375.720 C 365.584 375.981,365.216 375.709,364.100 374.116 C 363.038 372.602,363.003 372.400,363.800 372.400 C 364.130 372.400,364.400 372.208,364.400 371.973 C 364.400 371.729,364.059 371.654,363.603 371.799 C 362.991 371.993,362.690 371.791,362.306 370.926 C 362.031 370.307,361.489 369.451,361.103 369.025 C 360.277 368.114,360.200 367.358,360.900 367.037 C 361.175 366.911,360.995 366.908,360.500 367.031 C 359.855 367.191,359.600 367.077,359.600 366.627 C 359.600 366.282,359.780 366.000,360.000 366.000 C 360.220 366.000,360.400 365.801,360.400 365.557 C 360.400 365.314,360.117 365.223,359.770 365.356 C 359.114 365.608,358.000 364.772,358.000 364.029 C 358.000 363.793,357.820 363.600,357.600 363.600 C 357.380 363.600,357.200 363.330,357.200 363.000 C 357.200 362.670,357.020 362.400,356.800 362.400 C 356.580 362.400,356.400 362.040,356.400 361.600 C 356.400 361.160,356.580 360.800,356.800 360.800 C 357.020 360.800,357.200 361.059,357.200 361.376 C 357.200 361.693,357.363 362.054,357.563 362.177 C 358.138 362.533,357.632 361.098,356.795 360.000 C 356.060 359.036,356.040 359.033,356.263 359.900 C 356.399 360.434,356.312 360.800,356.047 360.800 C 355.801 360.800,355.600 360.530,355.600 360.200 C 355.600 359.870,355.448 359.600,355.263 359.600 C 355.077 359.600,354.509 358.790,354.000 357.800 C 353.491 356.810,352.923 356.000,352.737 356.000 C 352.552 356.000,352.400 355.801,352.400 355.557 C 352.400 355.314,352.670 355.218,353.000 355.345 C 353.373 355.488,353.600 355.342,353.600 354.960 C 353.600 354.539,353.361 354.422,352.841 354.587 C 352.275 354.767,351.869 354.482,351.241 353.467 C 350.352 352.028,350.130 350.986,350.800 351.400 C 351.020 351.536,351.200 351.347,351.200 350.981 C 351.200 350.530,350.990 350.395,350.549 350.564 C 350.191 350.701,349.651 350.609,349.349 350.358 C 348.725 349.840,348.587 348.221,349.200 348.600 C 349.420 348.736,349.600 348.644,349.600 348.397 C 349.600 348.128,349.277 348.049,348.800 348.200 C 347.941 348.473,347.667 347.801,348.500 347.465 C 348.775 347.354,348.625 347.249,348.168 347.232 C 347.090 347.191,345.987 345.302,346.761 344.824 C 347.129 344.597,347.153 344.418,346.843 344.226 C 346.599 344.076,346.400 344.143,346.400 344.376 C 346.400 344.609,346.220 344.800,346.000 344.800 C 345.780 344.800,345.600 344.530,345.600 344.200 C 345.600 343.870,345.420 343.600,345.200 343.600 C 344.980 343.600,344.800 343.229,344.800 342.776 C 344.800 342.323,344.620 342.064,344.400 342.200 C 344.180 342.336,344.000 342.167,344.000 341.824 C 344.000 341.481,343.820 341.200,343.600 341.200 C 343.380 341.200,343.200 340.930,343.200 340.600 C 343.200 340.270,343.020 340.000,342.800 340.000 C 342.580 340.000,342.400 339.730,342.400 339.400 C 342.400 339.070,342.580 338.800,342.800 338.800 C 343.020 338.800,343.200 338.601,343.200 338.357 C 343.200 338.114,342.917 338.023,342.570 338.156 C 341.608 338.525,340.553 337.287,341.093 336.423 C 341.358 335.999,341.388 335.509,341.169 335.164 C 340.881 334.708,340.811 334.734,340.806 335.300 C 340.797 336.390,340.122 336.125,339.536 334.800 C 339.244 334.140,338.869 333.600,338.702 333.600 C 338.536 333.600,338.400 333.330,338.400 333.000 C 338.400 331.985,339.067 332.333,339.741 333.700 C 340.291 334.815,340.383 334.872,340.391 334.100 C 340.396 333.605,340.242 333.200,340.050 333.200 C 339.857 333.200,339.412 332.615,339.059 331.900 C 338.509 330.785,338.417 330.728,338.409 331.500 C 338.404 331.995,338.220 332.400,338.000 332.400 C 337.780 332.400,337.600 332.130,337.600 331.800 C 337.600 331.470,337.420 331.200,337.200 331.200 C 336.980 331.200,336.800 330.880,336.800 330.488 C 336.800 330.097,336.440 329.517,336.001 329.201 C 335.502 328.841,335.287 328.357,335.428 327.912 C 335.579 327.436,335.446 327.200,335.027 327.200 C 334.682 327.200,334.400 327.001,334.400 326.757 C 334.400 326.514,334.670 326.418,335.000 326.545 C 335.770 326.840,335.745 326.412,334.933 325.400 C 334.413 324.750,334.338 324.731,334.534 325.300 C 334.855 326.233,334.294 326.188,333.408 325.208 C 332.755 324.487,332.749 324.394,333.346 324.166 C 334.274 323.809,334.162 323.095,333.224 323.392 C 332.692 323.561,332.315 323.389,332.024 322.846 C 331.489 321.845,331.476 321.076,332.000 321.400 C 332.220 321.536,332.400 321.444,332.400 321.197 C 332.400 320.924,332.075 320.849,331.578 321.007 C 330.918 321.216,330.664 321.024,330.290 320.034 C 330.034 319.355,329.684 318.800,329.512 318.800 C 329.341 318.800,329.200 318.519,329.200 318.176 C 329.200 317.833,329.380 317.664,329.600 317.800 C 329.820 317.936,330.000 317.747,330.000 317.381 C 330.000 316.939,329.788 316.796,329.370 316.956 C 328.154 317.423,326.924 315.177,328.100 314.637 C 328.375 314.511,328.168 314.516,327.639 314.650 C 326.880 314.842,326.729 314.762,326.919 314.267 C 327.086 313.833,326.981 313.709,326.580 313.863 C 325.849 314.144,325.772 312.571,326.500 312.237 C 326.775 312.111,326.595 312.108,326.100 312.231 C 325.589 312.357,325.200 312.269,325.200 312.027 C 325.200 311.792,325.380 311.600,325.600 311.600 C 325.820 311.600,326.000 311.420,326.000 311.200 C 326.000 310.980,325.651 310.800,325.225 310.800 C 324.627 310.800,324.467 310.548,324.525 309.700 C 324.587 308.785,324.443 308.606,323.670 308.635 C 322.971 308.661,322.786 308.495,322.925 307.965 C 323.057 307.461,322.936 307.326,322.500 307.494 C 322.091 307.650,321.958 307.542,322.095 307.164 C 322.208 306.854,322.503 306.645,322.750 306.700 C 322.998 306.755,323.200 306.622,323.200 306.405 C 323.200 306.187,322.815 306.052,322.344 306.105 C 321.873 306.157,321.399 305.946,321.290 305.636 C 321.158 305.262,321.293 305.150,321.692 305.303 C 322.195 305.496,322.221 305.377,321.847 304.572 C 321.539 303.910,321.360 303.796,321.271 304.205 C 321.050 305.222,320.561 304.869,319.600 303.000 C 319.091 302.010,318.533 301.200,318.360 301.200 C 318.187 301.200,318.116 300.835,318.202 300.389 C 318.288 299.943,318.195 299.679,317.996 299.802 C 317.797 299.925,317.360 299.497,317.025 298.849 C 316.691 298.202,316.188 297.577,315.908 297.461 C 315.531 297.305,315.579 297.105,316.094 296.686 C 316.860 296.062,316.643 295.532,315.761 295.870 C 315.067 296.137,315.009 295.354,315.700 295.037 C 315.975 294.911,315.795 294.908,315.300 295.031 C 314.644 295.193,314.400 295.077,314.400 294.603 C 314.400 294.246,314.580 294.064,314.800 294.200 C 315.020 294.336,315.200 294.257,315.200 294.024 C 315.200 293.791,314.788 293.600,314.283 293.600 C 313.309 293.600,311.592 290.739,312.403 290.467 C 312.621 290.393,312.800 290.156,312.800 289.940 C 312.800 289.723,312.440 289.660,312.000 289.800 C 311.432 289.980,311.200 289.872,311.200 289.427 C 311.200 289.082,311.020 288.800,310.800 288.800 C 310.580 288.800,310.400 288.519,310.400 288.176 C 310.400 287.833,310.580 287.664,310.800 287.800 C 311.020 287.936,311.200 287.844,311.200 287.597 C 311.200 287.328,310.877 287.249,310.400 287.400 C 309.832 287.580,309.600 287.472,309.600 287.027 C 309.600 286.682,309.420 286.400,309.200 286.400 C 308.980 286.400,308.800 286.130,308.800 285.800 C 308.800 285.470,308.620 285.200,308.400 285.200 C 308.180 285.200,308.000 284.829,308.000 284.376 C 308.000 283.923,308.163 283.654,308.363 283.777 C 308.562 283.900,308.631 283.641,308.516 283.201 C 308.401 282.760,308.170 282.400,308.002 282.400 C 307.834 282.400,307.473 281.860,307.200 281.200 C 306.927 280.540,306.545 280.000,306.351 280.000 C 306.158 280.000,306.000 279.810,306.000 279.579 C 306.000 279.347,305.550 278.495,305.000 277.686 C 304.258 276.594,304.000 276.412,304.000 276.983 C 304.000 277.710,303.958 277.705,303.200 276.892 C 302.760 276.420,302.400 275.880,302.400 275.692 C 302.400 275.504,302.031 274.955,301.580 274.470 C 301.128 273.986,300.869 273.412,301.003 273.195 C 301.137 272.978,301.089 272.800,300.895 272.800 C 300.478 272.800,298.573 269.975,298.203 268.810 C 298.062 268.365,297.778 268.000,297.573 268.000 C 297.368 268.000,297.200 267.758,297.200 267.462 C 297.200 267.166,296.840 266.598,296.400 266.200 C 295.960 265.802,295.600 265.159,295.600 264.771 C 295.600 264.384,295.375 263.991,295.100 263.898 C 294.710 263.767,294.721 263.584,295.149 263.065 C 295.451 262.699,295.541 262.379,295.349 262.354 C 295.157 262.328,294.750 262.283,294.445 262.254 C 294.140 262.224,293.690 261.850,293.445 261.422 C 293.200 260.994,292.685 260.285,292.300 259.846 C 291.915 259.408,291.600 258.828,291.600 258.558 C 291.600 258.288,291.459 258.007,291.287 257.933 C 290.771 257.714,289.148 254.718,289.405 254.461 C 289.536 254.330,289.811 254.488,290.016 254.812 C 290.341 255.326,290.387 255.325,290.381 254.800 C 290.378 254.470,290.110 253.851,289.787 253.424 C 289.275 252.746,289.200 252.734,289.200 253.324 C 289.200 253.696,289.020 254.000,288.800 254.000 C 288.580 254.000,288.400 253.730,288.400 253.400 C 288.400 253.070,288.220 252.800,288.000 252.800 C 287.780 252.800,287.600 252.607,287.600 252.372 C 287.600 252.137,287.060 251.159,286.400 250.200 C 285.740 249.241,285.200 248.346,285.200 248.211 C 285.200 248.077,284.840 247.580,284.400 247.108 C 283.960 246.636,283.600 246.013,283.600 245.725 C 283.600 245.436,283.438 245.200,283.239 245.200 C 283.041 245.200,282.690 244.660,282.460 244.000 C 282.230 243.340,281.852 242.800,281.621 242.800 C 281.389 242.800,281.200 242.620,281.200 242.400 C 281.200 242.180,281.470 242.000,281.800 242.000 C 282.130 242.000,282.400 241.808,282.400 241.573 C 282.400 241.336,282.063 241.253,281.640 241.387 C 281.064 241.570,280.750 241.335,280.342 240.414 C 280.047 239.746,279.669 239.200,279.502 239.200 C 279.336 239.200,279.200 238.829,279.200 238.376 C 279.200 237.923,279.020 237.664,278.800 237.800 C 278.580 237.936,278.400 237.767,278.400 237.424 C 278.400 237.081,278.220 236.800,278.000 236.800 C 277.423 236.800,277.507 235.700,278.100 235.488 C 278.391 235.384,278.452 235.161,278.245 234.955 C 278.039 234.748,277.816 234.809,277.712 235.100 C 277.462 235.799,276.800 235.726,276.800 235.000 C 276.800 234.670,276.620 234.400,276.400 234.400 C 276.180 234.400,276.000 234.029,276.000 233.576 C 276.000 233.123,276.180 232.864,276.400 233.000 C 276.620 233.136,276.800 233.037,276.800 232.781 C 276.800 232.521,276.521 232.421,276.170 232.556 C 275.450 232.832,274.400 231.946,274.400 231.062 C 274.400 230.735,274.577 230.407,274.794 230.333 C 275.011 230.260,274.812 229.660,274.352 229.000 C 273.592 227.910,273.563 228.121,274.243 229.800 C 274.376 230.130,274.286 230.400,274.043 230.400 C 273.799 230.400,273.600 230.130,273.600 229.800 C 273.600 229.470,273.420 229.200,273.200 229.200 C 272.980 229.200,272.800 228.930,272.800 228.600 C 272.800 228.270,272.620 228.000,272.400 228.000 C 272.180 228.000,272.000 227.801,272.000 227.557 C 272.000 227.314,272.270 227.218,272.600 227.345 C 272.972 227.488,273.200 227.342,273.200 226.962 C 273.200 226.563,272.900 226.393,272.337 226.475 C 271.860 226.544,271.389 226.348,271.283 226.036 C 271.149 225.643,271.295 225.551,271.766 225.732 C 272.180 225.890,272.343 225.831,272.187 225.579 C 272.047 225.353,271.588 225.277,271.166 225.411 C 270.718 225.553,270.400 225.465,270.400 225.199 C 270.400 224.949,269.860 223.959,269.200 223.000 C 267.853 221.043,267.727 220.610,268.600 220.945 C 268.972 221.088,269.200 220.942,269.200 220.562 C 269.200 220.202,268.912 219.997,268.500 220.065 C 267.478 220.233,266.799 219.677,266.806 218.676 C 266.811 217.964,266.885 217.912,267.200 218.400 C 267.532 218.914,267.589 218.900,267.594 218.305 C 267.598 217.824,267.327 217.639,266.718 217.705 C 266.040 217.778,265.638 217.407,264.974 216.093 C 264.499 215.154,263.816 214.060,263.455 213.661 C 262.722 212.851,262.591 212.000,263.200 212.000 C 263.420 212.000,263.600 211.808,263.600 211.573 C 263.600 211.328,263.259 211.254,262.800 211.400 C 261.936 211.674,261.677 211.015,262.500 210.637 C 262.775 210.511,262.640 210.492,262.200 210.596 C 261.333 210.801,259.971 208.743,260.792 208.469 C 261.016 208.395,261.200 208.156,261.200 207.940 C 261.200 207.723,260.840 207.660,260.400 207.800 C 259.832 207.980,259.600 207.872,259.600 207.427 C 259.600 207.082,259.420 206.800,259.200 206.800 C 258.980 206.800,258.800 206.519,258.800 206.176 C 258.800 205.833,258.980 205.664,259.200 205.800 C 259.420 205.936,259.600 205.844,259.600 205.597 C 259.600 205.319,259.273 205.250,258.746 205.417 C 257.978 205.661,257.915 205.572,258.130 204.544 C 258.261 203.915,258.270 203.625,258.151 203.900 C 257.848 204.595,257.200 204.527,257.200 203.800 C 257.200 203.470,257.020 203.200,256.800 203.200 C 256.580 203.200,256.400 202.930,256.400 202.600 C 256.400 202.270,256.220 202.000,256.000 202.000 C 255.780 202.000,255.600 201.730,255.600 201.400 C 255.600 201.070,255.420 200.800,255.200 200.800 C 254.980 200.800,254.800 200.603,254.800 200.362 C 254.800 200.121,254.428 199.401,253.973 198.762 C 253.518 198.123,253.282 197.600,253.448 197.600 C 253.615 197.600,253.371 197.246,252.907 196.814 C 252.442 196.381,251.946 195.661,251.804 195.214 C 251.662 194.766,251.378 194.400,251.173 194.400 C 250.968 194.400,250.800 194.220,250.800 194.000 C 250.800 193.780,251.070 193.600,251.400 193.600 C 251.730 193.600,252.000 193.408,252.000 193.173 C 252.000 192.933,251.661 192.854,251.224 192.992 C 250.692 193.161,250.315 192.989,250.024 192.446 C 249.489 191.445,249.476 190.676,250.000 191.000 C 250.220 191.136,250.400 191.049,250.400 190.806 C 250.400 190.563,250.175 190.394,249.900 190.430 C 248.749 190.579,248.324 190.374,248.553 189.779 C 248.689 189.423,248.622 189.263,248.395 189.403 C 248.178 189.537,248.000 189.386,248.000 189.066 C 248.000 188.747,247.685 188.363,247.300 188.214 C 246.647 187.961,246.651 187.905,247.371 187.376 C 247.795 187.064,248.017 186.683,247.864 186.531 C 247.712 186.378,247.380 186.460,247.127 186.713 C 246.781 187.059,246.539 187.003,246.147 186.486 C 245.533 185.678,245.421 184.242,246.000 184.600 C 246.220 184.736,246.400 184.636,246.400 184.377 C 246.400 184.104,246.065 183.994,245.600 184.116 C 245.069 184.255,244.800 184.128,244.800 183.739 C 244.800 183.417,244.620 183.264,244.400 183.400 C 244.180 183.536,244.000 183.266,244.000 182.800 C 244.000 182.334,244.180 182.064,244.400 182.200 C 244.620 182.336,244.800 182.244,244.800 181.997 C 244.800 181.728,244.477 181.649,244.000 181.800 C 243.145 182.071,242.860 181.391,243.700 181.083 C 244.100 180.937,244.100 180.794,243.700 180.370 C 243.339 179.987,243.200 179.973,243.200 180.320 C 243.200 180.584,243.020 180.800,242.800 180.800 C 242.580 180.800,242.400 180.530,242.400 180.200 C 242.400 179.870,242.241 179.600,242.047 179.600 C 241.601 179.600,241.088 178.111,241.081 176.800 C 241.078 176.208,241.008 176.086,240.910 176.500 C 240.731 177.256,240.000 177.475,240.000 176.772 C 240.000 176.537,239.460 175.559,238.800 174.600 C 238.140 173.641,237.600 172.697,237.600 172.503 C 237.600 172.309,237.231 171.755,236.780 171.270 C 236.000 170.434,236.037 169.328,236.828 169.817 C 237.032 169.944,237.200 169.853,237.200 169.616 C 237.200 169.356,236.803 169.284,236.200 169.436 C 235.472 169.618,235.200 169.526,235.200 169.097 C 235.200 168.773,234.827 168.033,234.370 167.453 C 233.646 166.533,233.621 166.367,234.170 166.156 C 234.517 166.023,234.800 165.734,234.800 165.514 C 234.800 165.294,234.504 165.228,234.142 165.367 C 233.306 165.688,231.979 164.519,232.283 163.729 C 232.469 163.243,232.574 163.232,232.850 163.666 C 233.108 164.074,233.189 164.033,233.194 163.492 C 233.199 162.954,232.981 162.840,232.287 163.014 C 231.520 163.206,231.263 162.993,230.687 161.687 C 229.791 159.657,229.815 159.413,230.986 158.646 C 232.147 157.885,232.558 157.821,232.162 158.462 C 231.989 158.741,232.052 158.815,232.321 158.649 C 232.565 158.498,232.652 158.079,232.513 157.718 C 232.326 157.231,232.428 157.125,232.908 157.309 C 233.356 157.481,234.117 156.922,235.390 155.483 C 236.516 154.212,237.036 153.345,236.733 153.244 C 236.462 153.154,236.164 153.307,236.072 153.585 C 235.979 153.863,235.565 154.380,235.152 154.734 C 234.738 155.088,234.400 155.618,234.400 155.913 C 234.400 156.207,234.235 156.345,234.034 156.221 C 233.833 156.097,233.577 156.221,233.466 156.498 C 233.354 156.774,233.249 156.806,233.232 156.569 C 233.172 155.758,242.553 145.886,242.979 146.312 C 243.101 146.434,243.200 146.250,243.200 145.904 C 243.200 145.472,243.450 145.340,244.000 145.484 C 244.465 145.606,244.800 145.496,244.800 145.223 C 244.800 144.964,244.592 144.881,244.338 145.038 C 244.050 145.216,243.985 145.148,244.166 144.855 C 244.325 144.598,244.630 144.495,244.843 144.627 C 245.057 144.759,245.852 144.189,246.610 143.361 C 248.155 141.675,248.146 140.948,246.598 142.401 C 244.757 144.132,245.577 142.719,247.700 140.504 C 252.881 135.098,254.487 133.553,254.702 133.769 C 254.829 133.896,254.273 134.660,253.467 135.467 C 252.660 136.273,252.081 137.014,252.180 137.114 C 252.538 137.471,258.785 130.593,258.795 129.830 C 258.798 129.627,258.383 129.852,257.874 130.330 C 256.624 131.505,256.129 131.442,257.282 130.255 C 262.980 124.388,267.155 119.964,267.850 119.058 C 268.318 118.449,270.566 116.026,272.846 113.675 C 275.126 111.324,276.946 109.352,276.889 109.293 C 276.833 109.235,277.375 108.584,278.093 107.847 C 278.812 107.110,281.165 104.683,283.322 102.453 C 285.479 100.224,287.446 98.400,287.692 98.400 C 287.938 98.400,287.717 98.850,287.200 99.400 C 285.763 100.930,286.638 100.589,288.227 99.000 C 288.997 98.230,289.451 97.600,289.237 97.600 C 289.023 97.600,288.724 97.799,288.574 98.043 C 288.379 98.358,288.212 98.343,287.995 97.992 C 287.680 97.482,290.307 94.574,290.715 94.982 C 290.832 95.099,290.511 95.557,290.000 96.000 C 289.489 96.443,289.207 96.939,289.372 97.103 C 289.537 97.266,290.098 96.866,290.620 96.214 C 291.284 95.382,291.429 94.941,291.102 94.740 C 290.461 94.343,297.901 86.787,298.650 87.075 C 298.978 87.200,299.933 86.496,300.981 85.355 C 302.653 83.533,303.148 82.481,301.810 83.592 C 301.145 84.143,301.005 83.727,301.561 82.850 C 302.383 81.551,309.158 75.002,309.654 75.025 C 310.183 75.050,313.600 71.824,313.600 71.300 C 313.600 71.157,313.384 71.256,313.120 71.520 C 312.543 72.097,311.880 72.154,312.067 71.611 C 312.263 71.038,320.079 63.200,320.454 63.200 C 320.631 63.200,320.656 63.515,320.510 63.900 C 320.265 64.545,320.296 64.550,320.899 63.952 C 321.258 63.596,321.464 62.966,321.356 62.552 C 321.137 61.714,323.810 58.476,324.308 58.976 C 324.469 59.137,324.195 59.597,323.700 59.999 C 323.205 60.400,322.800 60.915,322.800 61.144 C 322.800 61.373,322.486 61.736,322.103 61.950 C 321.720 62.165,321.544 62.478,321.713 62.646 C 321.881 62.814,322.266 62.603,322.568 62.176 C 322.871 61.749,323.499 60.965,323.964 60.432 C 324.512 59.807,324.722 59.185,324.559 58.672 C 324.361 58.048,324.450 57.934,324.975 58.135 C 325.382 58.291,325.542 58.230,325.386 57.978 C 324.971 57.306,326.035 56.363,326.956 56.587 C 327.420 56.700,327.575 56.689,327.300 56.563 C 326.431 56.164,326.760 55.535,327.700 55.799 C 328.367 55.987,328.451 55.950,328.026 55.657 C 327.165 55.064,328.236 53.905,329.356 54.217 C 330.012 54.400,330.068 54.362,329.610 54.047 C 329.109 53.703,329.165 53.489,329.980 52.621 C 330.995 51.541,332.049 51.177,331.200 52.200 C 330.926 52.530,330.833 52.800,330.994 52.800 C 331.368 52.800,335.616 48.283,335.423 48.090 C 335.165 47.831,333.600 48.979,333.600 49.426 C 333.600 49.665,333.150 50.283,332.600 50.800 C 331.186 52.129,331.368 51.298,332.905 49.408 C 336.061 45.528,338.005 43.772,338.450 44.400 C 338.797 44.889,338.829 44.858,338.624 44.233 C 338.273 43.157,340.646 40.721,341.780 40.995 C 342.231 41.104,342.375 41.089,342.100 40.963 C 341.238 40.567,341.556 39.935,342.500 40.169 C 342.995 40.292,343.175 40.289,342.900 40.163 C 342.187 39.836,342.277 39.347,343.260 38.217 C 344.144 37.200,345.215 37.219,344.370 38.236 C 344.113 38.546,344.039 38.800,344.207 38.800 C 344.879 38.800,345.539 37.409,345.112 36.894 C 344.793 36.510,345.806 35.255,349.240 31.777 C 351.742 29.243,354.059 26.727,354.388 26.185 C 355.017 25.147,355.410 24.968,355.772 25.555 C 355.893 25.750,355.723 26.132,355.396 26.404 C 355.068 26.676,354.800 27.083,354.800 27.310 C 354.800 27.537,355.157 27.290,355.593 26.761 C 356.029 26.233,356.614 25.538,356.893 25.217 C 358.311 23.590,358.811 22.701,357.635 23.900 C 356.462 25.096,355.600 25.546,355.600 24.963 C 355.600 24.833,356.725 23.597,358.100 22.218 C 359.475 20.839,362.040 18.135,363.800 16.210 C 369.126 10.384,373.229 6.296,373.490 6.557 C 373.626 6.692,373.301 7.297,372.770 7.902 C 371.844 8.953,371.859 8.950,373.102 7.824 C 374.018 6.996,374.257 6.559,373.911 6.345 C 373.554 6.124,373.681 5.766,374.380 5.021 C 375.395 3.941,376.449 3.577,375.600 4.600 C 374.967 5.362,375.469 5.388,376.225 4.632 C 376.612 4.245,376.649 4.016,376.342 3.914 C 375.792 3.731,376.645 2.077,377.700 1.282 C 378.085 0.992,378.400 0.585,378.400 0.377 C 378.400 0.142,353.747 -0.000,313.094 -0.000 L 247.787 -0.000 246.194 1.859 M244.086 2.254 C 243.583 2.774,243.330 3.200,243.524 3.200 C 243.948 3.200,245.397 1.655,245.164 1.451 C 245.074 1.372,244.589 1.733,244.086 2.254 M377.660 2.251 C 377.143 2.802,376.819 3.352,376.941 3.474 C 377.162 3.695,377.717 3.212,378.749 1.898 C 379.584 0.835,378.728 1.113,377.660 2.251 M242.500 4.198 C 241.901 4.879,241.864 5.200,242.386 5.200 C 242.598 5.200,242.965 4.840,243.200 4.400 C 243.691 3.483,243.243 3.354,242.500 4.198 M237.200 9.925 C 237.200 10.103,236.833 10.643,236.384 11.125 C 235.390 12.192,235.861 12.256,237.100 11.223 C 238.035 10.443,238.294 9.600,237.600 9.600 C 237.380 9.600,237.200 9.746,237.200 9.925 M366.300 14.446 C 364.462 16.459,364.296 17.340,366.100 15.503 C 367.898 13.673,368.560 12.800,368.149 12.801 C 367.957 12.801,367.125 13.542,366.300 14.446 M229.673 18.600 C 229.422 19.150,229.290 19.600,229.380 19.600 C 229.698 19.600,230.800 18.337,230.800 17.971 C 230.800 17.239,230.120 17.619,229.673 18.600 M223.693 25.600 C 223.418 26.040,223.331 26.400,223.500 26.400 C 223.669 26.400,224.032 26.040,224.307 25.600 C 224.582 25.160,224.669 24.800,224.500 24.800 C 224.331 24.800,223.968 25.160,223.693 25.600 M218.998 30.559 C 218.779 30.866,218.183 31.676,217.673 32.359 C 216.271 34.235,216.902 33.846,218.579 31.800 C 219.390 30.810,219.906 30.000,219.725 30.000 C 219.544 30.000,219.217 30.251,218.998 30.559 M206.589 44.515 C 204.998 46.393,204.295 47.673,205.147 47.141 C 205.616 46.847,206.000 46.437,206.000 46.230 C 206.000 46.022,206.391 45.435,206.870 44.926 C 207.348 44.417,207.573 44.007,207.370 44.015 C 207.166 44.024,206.815 44.249,206.589 44.515 M199.269 52.839 C 198.510 54.054,198.966 54.216,199.755 53.012 C 200.120 52.456,200.278 52.000,200.105 52.000 C 199.933 52.000,199.557 52.378,199.269 52.839 M193.025 60.133 C 192.065 61.495,192.017 61.654,192.762 61.004 C 193.688 60.197,194.574 58.840,194.332 58.599 C 194.260 58.526,193.671 59.217,193.025 60.133 M187.700 65.798 C 187.131 66.445,187.061 66.800,187.504 66.800 C 187.671 66.800,188.032 66.440,188.307 66.000 C 188.878 65.087,188.451 64.945,187.700 65.798 M311.998 72.300 C 311.997 72.465,311.557 73.140,311.020 73.800 C 310.081 74.954,310.053 74.962,310.293 74.007 C 310.644 72.607,312.005 71.245,311.998 72.300 M300.170 85.470 C 299.632 86.051,299.073 86.406,298.928 86.261 C 298.587 85.920,300.414 83.962,300.832 84.220 C 301.006 84.327,300.708 84.890,300.170 85.470 M168.900 86.998 C 168.331 87.645,168.261 88.000,168.704 88.000 C 168.871 88.000,169.232 87.640,169.507 87.200 C 170.078 86.287,169.651 86.145,168.900 86.998 M163.772 92.913 C 162.187 94.786,161.911 95.200,162.251 95.191 C 162.443 95.187,163.107 94.467,163.726 93.591 C 164.962 91.845,164.987 91.477,163.772 92.913 M159.032 98.313 L 158.264 99.400 159.332 98.430 C 160.454 97.411,160.593 97.192,160.100 97.213 C 159.935 97.219,159.454 97.714,159.032 98.313 M156.493 101.200 C 156.218 101.640,156.131 102.000,156.300 102.000 C 156.469 102.000,156.832 101.640,157.107 101.200 C 157.382 100.760,157.469 100.400,157.300 100.400 C 157.131 100.400,156.768 100.760,156.493 101.200 M279.246 107.419 C 278.721 107.973,278.398 108.531,278.527 108.660 C 278.761 108.894,279.303 108.430,280.349 107.098 C 281.189 106.030,280.326 106.281,279.246 107.419 M146.182 112.515 C 145.189 113.668,145.159 114.120,146.135 113.230 C 146.721 112.697,147.200 112.202,147.200 112.130 C 147.200 111.828,146.569 112.067,146.182 112.515 M269.600 117.957 C 269.600 118.227,269.433 118.344,269.229 118.218 C 269.025 118.092,268.743 118.351,268.602 118.794 C 268.461 119.237,268.178 119.600,267.973 119.600 C 267.768 119.600,267.600 119.833,267.600 120.119 C 267.600 120.404,266.883 121.337,266.007 122.193 C 265.131 123.048,264.494 123.827,264.591 123.924 C 264.800 124.133,267.611 121.256,269.078 119.334 C 269.646 118.588,269.996 117.863,269.856 117.722 C 269.715 117.582,269.600 117.687,269.600 117.957 M137.693 122.400 C 137.418 122.840,137.331 123.200,137.500 123.200 C 137.669 123.200,138.032 122.840,138.307 122.400 C 138.582 121.960,138.669 121.600,138.500 121.600 C 138.331 121.600,137.968 121.960,137.693 122.400 M256.400 132.151 C 256.400 132.454,256.144 132.914,255.832 133.173 C 255.374 133.554,255.291 133.505,255.402 132.922 C 255.477 132.525,255.553 132.065,255.569 131.900 C 255.625 131.355,256.400 131.589,256.400 132.151 M119.700 142.623 C 119.111 143.263,119.062 143.600,119.557 143.600 C 119.898 143.600,120.537 142.396,120.309 142.183 C 120.249 142.127,119.975 142.325,119.700 142.623 M239.214 173.729 C 239.206 174.129,239.470 174.727,239.800 175.057 C 240.551 175.808,240.551 175.313,239.800 174.000 C 239.341 173.197,239.226 173.144,239.214 173.729 M252.400 195.400 C 252.400 195.730,252.692 196.000,253.049 196.000 C 253.580 196.000,253.608 195.891,253.200 195.400 C 252.926 195.070,252.634 194.800,252.551 194.800 C 252.468 194.800,252.400 195.070,252.400 195.400 M256.409 200.833 C 256.414 201.145,256.785 201.850,257.233 202.400 L 258.048 203.400 257.373 202.000 C 256.548 200.288,256.397 200.106,256.409 200.833 M269.548 222.137 C 269.793 222.432,269.897 222.770,269.779 222.887 C 269.662 223.005,269.835 223.205,270.165 223.331 C 270.668 223.524,270.693 223.402,270.318 222.581 C 270.073 222.041,269.698 221.600,269.487 221.600 C 269.271 221.600,269.297 221.835,269.548 222.137 M162.092 234.075 C 162.291 234.673,163.200 235.002,163.200 234.476 C 163.200 234.261,162.915 233.976,162.567 233.843 C 162.177 233.693,161.994 233.782,162.092 234.075 M154.600 239.600 C 153.517 240.700,152.771 241.600,152.944 241.600 C 153.116 241.600,153.469 241.364,153.729 241.076 C 153.988 240.788,154.820 239.888,155.578 239.076 C 157.621 236.889,156.879 237.286,154.600 239.600 M286.677 249.572 C 286.788 249.997,287.107 250.432,287.386 250.539 C 287.784 250.692,287.797 250.525,287.447 249.770 C 286.912 248.617,286.392 248.483,286.677 249.572 M139.208 255.792 C 138.241 256.777,137.529 257.641,137.625 257.713 C 137.721 257.784,138.590 256.978,139.557 255.921 C 141.771 253.500,141.541 253.414,139.208 255.792 M298.400 268.551 C 298.400 268.634,298.670 268.926,299.000 269.200 C 299.491 269.608,299.600 269.580,299.600 269.049 C 299.600 268.692,299.330 268.400,299.000 268.400 C 298.670 268.400,298.400 268.468,298.400 268.551 M124.200 271.506 C 123.980 271.668,123.443 272.250,123.006 272.800 C 122.343 273.635,122.426 273.606,123.506 272.625 C 124.674 271.564,124.991 271.188,124.700 271.206 C 124.645 271.209,124.420 271.344,124.200 271.506 M120.675 275.122 C 120.084 275.739,119.600 276.388,119.600 276.564 C 119.600 276.740,120.140 276.307,120.800 275.600 C 121.914 274.408,122.188 274.000,121.875 274.000 C 121.806 274.000,121.266 274.505,120.675 275.122 M302.400 274.951 C 302.400 275.034,302.670 275.326,303.000 275.600 C 303.491 276.008,303.600 275.980,303.600 275.449 C 303.600 275.092,303.330 274.800,303.000 274.800 C 302.670 274.800,302.400 274.868,302.400 274.951 M305.798 279.833 C 306.239 280.695,306.915 281.749,307.300 282.175 C 307.994 282.944,308.211 283.600,307.771 283.600 C 307.243 283.600,305.374 280.903,304.929 279.500 C 304.807 279.115,304.548 278.800,304.353 278.800 C 304.159 278.800,304.000 278.605,304.000 278.367 C 304.000 277.482,305.021 278.315,305.798 279.833 M320.006 302.300 C 320.024 303.177,320.788 303.759,320.794 302.900 C 320.797 302.405,320.620 302.000,320.400 302.000 C 320.180 302.000,320.003 302.135,320.006 302.300 M246.873 383.800 C 247.123 384.350,247.484 384.800,247.673 384.800 C 247.863 384.800,247.724 384.350,247.363 383.800 C 247.003 383.250,246.643 382.800,246.563 382.800 C 246.483 382.800,246.622 383.250,246.873 383.800 M372.816 385.914 C 372.793 386.655,374.011 388.401,374.546 388.394 C 374.874 388.389,374.877 388.306,374.558 388.094 C 374.315 387.932,373.827 387.260,373.474 386.600 C 373.121 385.940,372.825 385.631,372.816 385.914 " stroke="none" fill="#f45c3c" fill-rule="evenodd"></path><path id="path2" d="M246.274 0.840 C 246.134 1.375,245.876 1.571,245.565 1.378 C 245.267 1.194,245.179 1.243,245.341 1.504 C 245.486 1.739,245.379 2.023,245.102 2.134 C 244.789 2.261,244.853 2.349,245.273 2.368 C 245.643 2.386,246.330 1.860,246.800 1.200 C 247.457 0.277,247.520 0.000,247.074 0.000 C 246.755 0.000,246.394 0.378,246.274 0.840 M377.700 1.056 C 377.205 1.591,376.800 2.168,376.800 2.339 C 376.800 2.510,375.720 3.754,374.400 5.103 C 373.080 6.452,372.000 7.665,372.000 7.798 C 372.000 8.318,373.293 7.278,374.024 6.169 C 374.448 5.526,374.796 5.127,374.797 5.282 C 374.799 5.437,375.250 5.114,375.800 4.564 C 376.350 4.014,376.800 3.412,376.800 3.227 C 376.800 3.042,377.338 2.465,377.996 1.945 C 378.654 1.425,379.194 0.775,379.196 0.500 C 379.202 -0.226,378.723 -0.048,377.700 1.056 M242.500 5.031 C 241.345 6.251,240.402 7.464,240.404 7.725 C 240.408 8.142,243.232 5.388,244.749 3.488 C 246.016 1.901,244.438 2.984,242.500 5.031 M369.200 10.406 C 364.196 15.679,360.744 19.563,360.800 19.856 C 360.832 20.028,360.531 20.298,360.130 20.456 C 359.526 20.694,359.513 20.749,360.051 20.772 C 360.712 20.800,361.990 19.621,361.349 19.575 C 361.157 19.561,361.405 19.387,361.900 19.188 C 362.395 18.989,362.800 18.539,362.800 18.189 C 362.800 17.839,362.948 17.644,363.129 17.756 C 363.309 17.868,363.758 17.608,364.125 17.180 C 364.492 16.751,364.674 16.400,364.529 16.400 C 364.384 16.400,365.376 15.307,366.733 13.971 C 368.090 12.635,369.200 11.285,369.200 10.971 C 369.200 10.657,369.335 10.441,369.500 10.490 C 369.953 10.626,372.088 8.501,371.720 8.280 C 371.544 8.174,370.410 9.131,369.200 10.406 M238.028 10.236 C 237.053 11.206,236.108 12.000,235.928 12.000 C 235.747 12.000,235.600 12.270,235.600 12.600 C 235.600 12.930,235.426 13.200,235.213 13.200 C 235.000 13.200,234.595 13.640,234.313 14.179 C 234.031 14.717,233.665 15.167,233.500 15.179 C 233.335 15.190,233.206 15.296,233.214 15.414 C 233.240 15.794,232.071 16.800,231.605 16.800 C 231.356 16.800,231.264 16.980,231.400 17.200 C 231.536 17.420,231.427 17.600,231.157 17.600 C 230.887 17.600,230.783 17.717,230.926 17.860 C 231.069 18.002,230.558 18.711,229.791 19.435 C 229.024 20.158,228.534 20.835,228.702 20.940 C 229.167 21.227,230.028 20.426,231.897 17.967 C 232.830 16.739,234.180 15.174,234.897 14.489 C 235.614 13.804,236.453 12.919,236.763 12.522 C 237.073 12.125,238.055 11.035,238.946 10.100 C 241.086 7.855,240.303 7.971,238.028 10.236 M357.249 23.040 C 356.312 24.052,355.648 24.981,355.772 25.106 C 355.897 25.230,356.701 24.594,357.559 23.692 C 358.417 22.790,359.205 22.138,359.310 22.243 C 359.415 22.348,359.608 22.157,359.738 21.817 C 360.206 20.598,358.928 21.226,357.249 23.040 M225.800 23.600 C 225.936 23.820,225.767 24.000,225.424 24.000 C 225.081 24.000,224.800 24.243,224.800 24.541 C 224.800 24.838,224.258 25.648,223.597 26.341 C 222.905 27.064,222.622 27.600,222.930 27.600 C 223.706 27.600,225.682 25.256,225.353 24.725 C 225.201 24.478,225.252 24.385,225.467 24.518 C 225.682 24.650,226.158 24.408,226.525 23.980 C 227.155 23.243,227.147 23.200,226.372 23.200 C 225.922 23.200,225.664 23.380,225.800 23.600 M354.800 25.634 C 354.800 25.872,352.712 28.200,350.160 30.807 C 347.605 33.417,345.639 35.740,345.786 35.977 C 346.041 36.389,347.200 35.602,347.200 35.016 C 347.200 34.884,347.829 34.223,348.599 33.547 C 349.368 32.872,349.897 32.158,349.775 31.960 C 349.653 31.762,349.715 31.600,349.914 31.600 C 350.113 31.600,350.799 31.150,351.438 30.600 C 352.077 30.051,352.452 29.601,352.271 29.600 C 352.091 29.600,352.213 29.330,352.543 29.000 C 352.873 28.670,353.336 28.400,353.571 28.400 C 353.807 28.400,354.000 28.100,354.000 27.733 C 354.000 27.367,354.112 27.179,354.250 27.316 C 354.569 27.635,355.989 25.906,355.739 25.502 C 355.458 25.047,354.800 25.139,354.800 25.634 M222.400 28.357 C 222.400 28.627,222.220 28.736,222.000 28.600 C 221.780 28.464,221.600 28.644,221.600 29.000 C 221.600 29.356,221.420 29.536,221.200 29.400 C 220.980 29.264,220.800 29.354,220.800 29.600 C 220.800 29.846,220.616 29.933,220.390 29.794 C 220.165 29.655,220.006 29.689,220.037 29.870 C 220.178 30.680,219.967 31.227,219.600 31.000 C 219.380 30.864,219.200 30.928,219.200 31.142 C 219.200 31.357,218.660 32.042,218.000 32.665 C 217.340 33.288,216.800 34.034,216.800 34.322 C 216.800 34.611,216.620 34.736,216.400 34.600 C 216.180 34.464,216.000 34.556,216.000 34.805 C 216.000 35.415,214.958 36.424,214.648 36.114 C 214.511 35.978,214.400 36.068,214.400 36.315 C 214.400 36.562,213.995 37.212,213.500 37.759 C 213.005 38.307,212.177 39.227,211.660 39.804 C 211.143 40.381,210.840 40.974,210.988 41.122 C 211.136 41.269,212.009 40.498,212.929 39.407 C 213.848 38.316,215.635 36.362,216.900 35.065 C 218.165 33.767,219.200 32.574,219.200 32.413 C 219.200 32.253,220.045 31.288,221.077 30.271 C 222.109 29.253,222.829 28.296,222.677 28.143 C 222.525 27.991,222.400 28.087,222.400 28.357 M343.649 37.741 C 343.406 38.034,343.325 38.392,343.470 38.537 C 343.615 38.682,343.433 38.800,343.067 38.800 C 342.700 38.800,342.400 39.070,342.400 39.400 C 342.400 39.730,342.209 40.000,341.976 40.000 C 341.743 40.000,341.670 40.189,341.812 40.420 C 341.973 40.681,342.324 40.542,342.736 40.054 C 343.101 39.621,343.708 38.898,344.084 38.448 C 344.461 37.997,344.616 37.533,344.430 37.418 C 344.243 37.303,343.892 37.448,343.649 37.741 M337.592 44.300 C 335.727 46.225,333.660 48.498,333.000 49.350 C 332.340 50.203,330.867 51.815,329.727 52.932 C 328.586 54.049,327.752 55.122,327.872 55.317 C 328.057 55.616,330.800 53.107,330.800 52.639 C 330.800 52.552,331.385 51.854,332.100 51.089 C 332.815 50.325,333.603 49.452,333.851 49.149 C 334.099 48.847,334.639 48.307,335.051 47.950 C 336.076 47.060,339.238 43.489,340.125 42.221 C 340.524 41.650,341.046 41.305,341.287 41.454 C 341.549 41.615,341.609 41.539,341.438 41.262 C 341.057 40.644,341.395 40.377,337.592 44.300 M208.400 44.000 C 208.400 44.220,208.149 44.400,207.843 44.400 C 207.536 44.400,207.172 44.696,207.033 45.057 C 206.622 46.131,207.122 46.183,207.977 45.157 C 208.754 44.224,209.003 43.600,208.600 43.600 C 208.490 43.600,208.400 43.780,208.400 44.000 M206.000 46.176 C 206.000 46.519,205.820 46.800,205.600 46.800 C 205.380 46.800,205.200 46.990,205.200 47.223 C 205.200 47.455,204.300 48.559,203.200 49.677 C 202.100 50.794,201.200 51.875,201.200 52.078 C 201.200 52.281,201.020 52.336,200.800 52.200 C 200.580 52.064,200.400 52.244,200.400 52.600 C 200.400 52.956,200.236 53.146,200.035 53.021 C 199.834 52.897,199.435 53.324,199.150 53.969 C 198.864 54.614,198.488 55.055,198.315 54.948 C 198.142 54.840,198.000 55.011,198.000 55.327 C 198.000 55.643,197.726 56.130,197.390 56.408 C 197.055 56.686,196.865 56.999,196.969 57.102 C 197.181 57.314,201.064 53.209,202.021 51.761 C 202.362 51.245,203.577 49.897,204.721 48.765 C 206.854 46.654,207.094 46.229,206.400 45.800 C 206.180 45.664,206.000 45.833,206.000 46.176 M323.700 59.075 C 322.325 60.542,321.200 62.017,321.200 62.353 C 321.200 62.778,321.412 62.682,321.900 62.034 C 322.285 61.523,323.545 60.144,324.700 58.970 C 325.855 57.796,326.800 56.737,326.800 56.617 C 326.800 55.998,325.963 56.661,323.700 59.075 M195.600 58.400 C 195.283 58.840,194.793 59.200,194.512 59.200 C 194.230 59.200,194.000 59.275,194.000 59.367 C 194.000 59.459,193.891 59.819,193.757 60.167 C 193.313 61.325,194.250 60.820,195.552 59.200 C 196.259 58.320,196.689 57.600,196.507 57.600 C 196.325 57.600,195.917 57.960,195.600 58.400 M316.167 67.248 C 313.985 69.474,311.826 71.685,311.370 72.160 C 310.913 72.635,310.427 73.469,310.290 74.012 L 310.041 75.000 310.841 74.000 C 311.281 73.450,312.262 72.327,313.020 71.505 C 313.779 70.683,314.400 69.817,314.400 69.582 C 314.400 69.346,314.556 69.249,314.747 69.367 C 314.937 69.485,315.415 69.225,315.809 68.791 C 316.202 68.356,316.393 68.000,316.233 68.000 C 316.074 68.000,316.213 67.730,316.543 67.400 C 316.873 67.070,317.366 66.800,317.638 66.800 C 317.910 66.800,318.024 66.691,317.891 66.557 C 317.574 66.240,318.509 65.229,318.900 65.466 C 319.065 65.565,319.200 65.367,319.200 65.024 C 319.200 64.681,319.481 64.400,319.824 64.400 C 320.167 64.400,320.345 64.235,320.221 64.034 C 320.097 63.833,320.221 63.577,320.498 63.466 C 320.775 63.354,320.806 63.249,320.567 63.232 C 320.329 63.214,318.349 65.022,316.167 67.248 M190.284 64.320 C 190.418 64.694,190.387 64.874,190.216 64.719 C 189.787 64.332,188.807 65.383,188.768 66.271 C 188.750 66.685,188.650 66.786,188.536 66.504 C 188.301 65.922,187.200 66.823,187.200 67.598 C 187.200 67.848,186.187 69.076,184.949 70.326 C 183.711 71.577,182.822 72.375,182.973 72.100 C 183.124 71.825,183.057 71.600,182.824 71.600 C 182.591 71.600,182.400 71.894,182.400 72.253 C 182.400 72.612,182.012 73.242,181.539 73.653 C 181.065 74.064,180.896 74.400,181.162 74.400 C 181.429 74.400,181.532 74.625,181.391 74.900 C 181.251 75.175,181.617 74.860,182.205 74.200 C 182.794 73.540,184.494 71.650,185.984 70.000 C 191.033 64.407,191.259 64.108,190.623 63.864 C 190.208 63.705,190.111 63.836,190.284 64.320 M304.862 79.312 C 303.264 80.913,301.789 82.488,301.584 82.812 C 301.015 83.712,301.155 84.293,301.752 83.506 C 302.042 83.125,302.380 82.913,302.503 83.036 C 302.626 83.160,302.846 82.887,302.990 82.430 C 303.135 81.974,303.432 81.600,303.651 81.600 C 303.869 81.600,303.936 81.420,303.800 81.200 C 303.664 80.980,303.839 80.800,304.189 80.800 C 304.539 80.800,304.964 80.427,305.133 79.970 C 305.301 79.514,305.566 79.154,305.720 79.170 C 305.874 79.187,305.985 79.087,305.967 78.950 C 305.949 78.812,306.354 78.407,306.867 78.050 C 307.635 77.515,308.322 76.400,307.883 76.400 C 307.819 76.400,306.459 77.710,304.862 79.312 M177.676 78.624 C 177.388 78.950,176.978 79.110,176.766 78.979 C 176.554 78.848,176.406 78.889,176.437 79.070 C 176.595 79.976,176.343 80.464,175.820 80.263 C 175.433 80.114,175.315 80.233,175.464 80.622 C 175.598 80.971,174.992 81.899,173.943 82.951 C 171.520 85.381,169.200 87.981,169.200 88.267 C 169.200 88.398,168.885 88.799,168.500 89.156 C 168.115 89.514,167.440 90.247,167.000 90.786 L 166.200 91.765 167.428 90.782 C 168.103 90.242,169.700 88.540,170.976 87.000 C 172.252 85.460,174.130 83.294,175.148 82.186 C 178.503 78.536,178.943 78.000,178.570 78.015 C 178.366 78.024,177.964 78.298,177.676 78.624 M299.590 85.011 C 299.080 85.553,298.782 86.116,298.928 86.261 C 299.073 86.406,299.632 86.051,300.170 85.470 C 300.708 84.890,301.006 84.327,300.832 84.220 C 300.658 84.112,300.099 84.468,299.590 85.011 M297.421 87.577 C 297.034 88.004,296.812 88.589,296.927 88.877 C 297.060 89.208,297.148 89.134,297.168 88.676 C 297.186 88.278,297.380 88.064,297.600 88.200 C 297.820 88.336,298.000 88.156,298.000 87.800 C 298.000 87.413,298.185 87.267,298.462 87.438 C 298.748 87.615,298.815 87.548,298.638 87.262 C 298.266 86.660,298.246 86.666,297.421 87.577 M291.915 93.210 C 289.384 95.833,287.854 97.710,288.115 97.871 C 288.356 98.020,288.629 97.914,288.721 97.637 C 288.814 97.359,289.667 96.354,290.617 95.404 C 291.567 94.454,292.236 93.570,292.105 93.439 C 291.974 93.307,292.167 93.200,292.533 93.200 C 292.900 93.200,293.200 93.065,293.200 92.900 C 293.201 92.357,295.075 90.408,295.340 90.674 C 295.483 90.817,295.600 90.648,295.600 90.300 C 295.600 89.952,295.825 89.586,296.100 89.488 C 296.375 89.390,296.499 89.199,296.376 89.064 C 296.253 88.930,294.246 90.795,291.915 93.210 M165.396 92.407 C 165.258 92.630,164.979 92.711,164.777 92.586 C 164.575 92.461,164.503 92.604,164.619 92.904 C 164.740 93.220,164.395 93.682,163.800 94.000 C 163.235 94.303,162.860 94.781,162.969 95.062 C 163.077 95.344,162.993 95.681,162.783 95.811 C 162.572 95.941,162.400 95.846,162.400 95.600 C 162.400 95.354,162.201 95.276,161.957 95.426 C 161.649 95.617,161.679 95.802,162.057 96.038 C 162.432 96.271,163.034 95.910,164.000 94.873 C 166.111 92.607,166.549 92.000,166.073 92.000 C 165.839 92.000,165.534 92.183,165.396 92.407 M283.322 102.453 C 281.165 104.683,278.809 107.113,278.087 107.853 C 277.364 108.594,276.914 109.200,277.087 109.200 C 277.259 109.201,276.877 109.651,276.238 110.200 C 275.135 111.149,275.121 111.200,275.961 111.200 C 276.450 111.200,276.736 111.021,276.600 110.800 C 276.464 110.580,276.633 110.400,276.976 110.400 C 277.339 110.400,277.600 110.056,277.600 109.576 C 277.600 109.123,277.780 108.864,278.000 109.000 C 278.220 109.136,278.402 109.012,278.404 108.724 C 278.406 108.436,279.486 107.220,280.804 106.022 C 282.122 104.824,283.200 103.609,283.200 103.322 C 283.200 103.035,283.362 102.845,283.560 102.900 C 283.758 102.955,283.927 102.842,283.935 102.649 C 283.943 102.457,284.348 102.097,284.836 101.849 C 285.323 101.602,285.919 101.049,286.161 100.620 C 286.402 100.190,286.960 99.521,287.400 99.133 C 287.840 98.744,287.985 98.421,287.722 98.413 C 287.459 98.406,285.479 100.224,283.322 102.453 M273.419 113.035 C 272.666 113.586,272.668 113.600,273.500 113.600 C 274.391 113.600,275.039 112.995,274.502 112.663 C 274.331 112.557,273.844 112.725,273.419 113.035 M269.846 116.900 C 265.158 122.053,264.043 123.377,264.231 123.564 C 264.518 123.852,267.600 120.700,267.600 120.119 C 267.600 119.833,267.768 119.600,267.973 119.600 C 268.178 119.600,268.461 119.237,268.602 118.794 C 268.743 118.351,268.982 118.065,269.134 118.159 C 269.285 118.253,270.331 117.355,271.456 116.165 C 272.582 114.974,273.274 114.000,272.994 114.000 C 272.714 114.000,271.297 115.305,269.846 116.900 M258.299 129.177 C 257.261 130.290,256.545 131.195,256.706 131.189 C 257.282 131.168,260.464 127.993,260.326 127.578 C 260.248 127.345,259.336 128.065,258.299 129.177 M255.569 131.900 C 255.553 132.065,255.474 132.560,255.395 133.000 C 255.253 133.788,255.259 133.789,255.825 133.024 C 256.141 132.596,256.400 132.101,256.400 131.924 C 256.400 131.516,255.611 131.493,255.569 131.900 M250.800 137.272 C 248.930 139.263,246.959 141.314,246.419 141.831 C 245.880 142.349,245.525 142.858,245.630 142.964 C 245.926 143.259,249.600 139.754,249.600 139.177 C 249.600 138.896,249.705 138.772,249.834 138.901 C 250.137 139.204,252.000 137.590,252.000 137.026 C 252.000 136.789,252.630 136.070,253.400 135.428 C 254.714 134.332,255.182 133.566,254.500 133.627 C 254.335 133.641,252.670 135.282,250.800 137.272 M242.481 146.183 C 242.794 146.531,242.103 147.347,241.193 147.704 C 240.695 147.900,240.702 147.942,241.238 147.968 C 242.198 148.016,243.402 146.566,242.726 146.176 C 242.437 146.008,242.326 146.012,242.481 146.183 M238.000 150.833 C 234.410 154.703,233.198 156.168,233.232 156.596 C 233.249 156.818,233.354 156.774,233.466 156.498 C 233.577 156.221,233.833 156.097,234.034 156.221 C 234.235 156.345,234.400 156.161,234.400 155.811 C 234.400 155.461,234.663 155.074,234.985 154.950 C 235.306 154.827,235.679 154.383,235.812 153.963 C 235.945 153.543,236.310 153.200,236.623 153.200 C 236.936 153.200,237.599 152.572,238.096 151.805 C 238.593 151.038,239.213 150.408,239.473 150.405 C 239.733 150.402,240.057 150.052,240.192 149.626 C 240.327 149.200,240.744 148.771,241.119 148.672 C 241.657 148.530,241.632 148.489,241.000 148.477 C 240.525 148.468,239.307 149.424,238.000 150.833 M231.346 158.598 C 231.219 158.926,230.967 159.104,230.786 158.991 C 230.604 158.879,230.342 158.970,230.204 159.193 C 229.741 159.943,231.014 159.610,231.707 158.800 C 232.084 158.360,232.208 158.000,231.984 158.000 C 231.759 158.000,231.472 158.269,231.346 158.598 M230.957 162.233 C 231.091 162.581,231.200 162.941,231.200 163.033 C 231.200 163.125,231.489 163.200,231.843 163.200 C 232.231 163.200,232.400 163.423,232.270 163.762 C 231.996 164.475,233.408 165.835,233.786 165.223 C 233.931 164.987,233.769 164.686,233.425 164.554 C 233.081 164.422,232.800 164.091,232.800 163.818 C 232.800 163.258,231.463 161.600,231.010 161.600 C 230.848 161.600,230.824 161.885,230.957 162.233 M233.880 166.254 C 233.740 166.393,233.980 166.957,234.413 167.508 C 234.846 168.058,235.200 168.754,235.200 169.054 C 235.200 169.354,235.464 169.600,235.787 169.600 C 236.145 169.600,236.285 169.835,236.145 170.200 C 236.018 170.530,236.085 170.800,236.294 170.800 C 236.503 170.800,237.070 171.565,237.554 172.500 C 238.843 174.992,239.980 176.391,239.991 175.500 C 239.996 175.115,239.832 174.800,239.627 174.800 C 239.235 174.800,238.577 173.237,238.731 172.670 C 238.780 172.489,238.635 172.455,238.410 172.594 C 238.065 172.807,237.796 172.207,238.098 171.900 C 238.270 171.726,236.263 169.014,235.712 168.675 C 235.421 168.497,235.288 168.182,235.415 167.975 C 235.543 167.769,235.457 167.600,235.224 167.600 C 234.991 167.600,234.800 167.240,234.800 166.800 C 234.800 166.011,234.375 165.759,233.880 166.254 M241.600 179.200 C 241.600 179.420,241.864 179.600,242.187 179.600 C 242.545 179.600,242.685 179.835,242.545 180.200 C 242.418 180.530,242.514 180.800,242.757 180.800 C 243.345 180.800,243.322 179.882,242.720 179.280 C 242.136 178.696,241.600 178.658,241.600 179.200 M244.000 183.000 C 244.000 183.330,244.225 183.555,244.500 183.500 C 244.775 183.445,244.942 183.670,244.871 184.000 C 244.772 184.464,244.852 184.493,245.226 184.126 C 245.602 183.756,245.571 183.514,245.083 183.026 C 244.298 182.241,244.000 182.234,244.000 183.000 M245.675 185.200 C 245.754 185.750,246.033 186.157,246.295 186.105 C 246.585 186.047,246.672 186.267,246.518 186.670 C 246.347 187.114,246.418 187.236,246.732 187.042 C 247.411 186.622,247.310 186.083,246.365 185.083 L 245.531 184.200 245.675 185.200 M248.242 188.634 C 247.931 189.446,248.571 190.694,248.968 190.051 C 249.122 189.803,249.073 189.600,248.861 189.600 C 248.649 189.600,248.569 189.240,248.684 188.800 C 248.932 187.851,248.592 187.723,248.242 188.634 M249.686 191.597 C 249.989 192.339,250.458 192.989,250.728 193.043 C 250.999 193.096,251.036 193.049,250.810 192.937 C 250.584 192.825,250.400 192.410,250.400 192.016 C 250.400 191.621,250.116 191.062,249.768 190.773 C 249.196 190.299,249.188 190.377,249.686 191.597 M250.800 194.000 C 250.800 194.220,250.958 194.400,251.151 194.400 C 251.345 194.400,251.721 194.927,251.988 195.571 C 252.520 196.855,253.600 197.536,253.600 196.587 C 253.600 196.264,253.309 196.000,252.953 196.000 C 252.522 196.000,252.371 195.755,252.500 195.263 C 252.615 194.820,252.396 194.340,251.952 194.063 C 251.044 193.496,250.800 193.482,250.800 194.000 M253.973 198.762 C 254.428 199.401,254.800 200.121,254.800 200.362 C 254.800 200.603,254.980 200.800,255.200 200.800 C 255.420 200.800,255.600 201.051,255.600 201.357 C 255.600 201.812,256.391 202.400,257.002 202.400 C 257.077 202.400,256.869 201.860,256.540 201.200 C 256.211 200.540,255.775 200.000,255.571 200.000 C 255.367 200.000,255.200 199.646,255.200 199.214 C 255.200 198.782,254.852 198.242,254.426 198.014 C 253.191 197.353,253.089 197.521,253.973 198.762 M256.700 203.065 C 256.975 203.176,257.200 203.522,257.200 203.833 C 257.200 204.145,257.380 204.400,257.600 204.400 C 257.820 204.400,258.000 204.670,258.000 205.000 C 258.000 205.330,258.180 205.600,258.400 205.600 C 258.922 205.600,258.905 205.376,258.300 204.295 C 257.729 203.274,257.178 202.801,256.600 202.838 C 256.380 202.852,256.425 202.954,256.700 203.065 M261.479 209.757 C 261.315 210.174,261.275 210.609,261.391 210.724 C 261.755 211.089,262.076 210.491,261.924 209.731 C 261.783 209.035,261.762 209.036,261.479 209.757 M262.800 212.538 C 262.800 212.834,263.160 213.402,263.600 213.800 C 264.040 214.198,264.400 214.755,264.400 215.038 C 264.400 215.678,265.072 216.131,265.351 215.679 C 265.464 215.496,265.117 214.871,264.579 214.290 C 264.040 213.710,263.600 212.957,263.600 212.617 C 263.600 212.278,263.420 212.000,263.200 212.000 C 262.980 212.000,262.800 212.242,262.800 212.538 M265.200 216.751 C 265.200 217.272,266.379 218.155,266.676 217.857 C 266.818 217.716,266.723 217.600,266.467 217.600 C 266.210 217.600,266.000 217.330,266.000 217.000 C 266.000 216.670,265.820 216.400,265.600 216.400 C 265.380 216.400,265.200 216.558,265.200 216.751 M266.800 218.871 C 266.800 219.218,267.056 219.714,267.368 219.973 C 267.819 220.348,267.917 220.316,267.844 219.818 C 267.707 218.883,266.800 218.060,266.800 218.871 M268.000 221.028 C 268.000 221.153,268.540 222.041,269.200 223.000 C 269.860 223.959,270.400 224.854,270.400 224.989 C 270.400 225.123,270.730 225.588,271.133 226.021 C 271.706 226.636,271.867 226.676,271.867 226.204 C 271.867 225.872,271.706 225.600,271.510 225.600 C 271.313 225.600,271.264 225.420,271.400 225.200 C 271.536 224.980,271.457 224.800,271.224 224.800 C 270.991 224.800,270.800 224.519,270.800 224.176 C 270.800 223.833,270.620 223.664,270.400 223.800 C 270.040 224.022,269.827 223.497,269.953 222.700 C 269.979 222.535,269.841 222.400,269.647 222.400 C 269.452 222.400,269.199 222.040,269.084 221.600 C 268.901 220.899,268.000 220.423,268.000 221.028 M273.100 229.065 C 273.375 229.176,273.600 229.522,273.600 229.833 C 273.600 230.145,273.780 230.400,274.000 230.400 C 274.220 230.400,274.400 230.683,274.400 231.029 C 274.400 231.729,275.520 233.013,275.847 232.687 C 276.294 232.239,273.763 228.777,273.028 228.832 C 272.793 228.849,272.825 228.954,273.100 229.065 M161.600 231.600 C 162.098 231.922,162.064 231.990,161.400 232.000 C 160.736 232.010,160.702 232.078,161.200 232.400 C 162.102 232.983,162.400 232.884,162.400 232.000 C 162.400 231.502,162.135 231.202,161.700 231.206 C 161.102 231.211,161.087 231.269,161.600 231.600 M162.244 233.129 C 162.132 233.309,162.399 233.764,162.838 234.139 C 163.276 234.514,163.526 234.997,163.393 235.211 C 163.261 235.425,163.354 235.600,163.600 235.600 C 163.846 235.600,163.936 235.780,163.800 236.000 C 163.664 236.220,163.707 236.400,163.896 236.400 C 164.085 236.400,164.456 237.000,164.721 237.733 C 165.143 238.898,166.400 239.647,166.400 238.733 C 166.400 238.550,166.118 238.400,165.773 238.400 C 165.328 238.400,165.220 238.168,165.400 237.600 C 165.546 237.141,165.472 236.800,165.227 236.800 C 164.992 236.800,164.800 236.530,164.800 236.200 C 164.800 235.870,164.654 235.600,164.475 235.600 C 164.296 235.600,163.902 234.970,163.600 234.200 C 163.058 232.818,162.640 232.488,162.244 233.129 M276.000 233.800 C 276.000 234.130,276.180 234.400,276.400 234.400 C 276.620 234.400,276.800 234.130,276.800 233.800 C 276.800 233.470,276.620 233.200,276.400 233.200 C 276.180 233.200,276.000 233.470,276.000 233.800 M276.995 234.808 C 276.789 235.142,276.841 235.414,277.129 235.510 C 277.388 235.596,277.600 235.922,277.600 236.233 C 277.600 236.545,277.864 236.800,278.187 236.800 C 278.574 236.800,278.691 237.039,278.529 237.500 C 278.322 238.087,278.373 238.115,278.841 237.673 C 279.318 237.224,279.299 237.071,278.711 236.637 C 278.332 236.357,277.866 235.708,277.677 235.195 C 277.413 234.482,277.253 234.391,276.995 234.808 M166.204 239.993 C 166.066 240.217,166.143 240.400,166.376 240.400 C 166.609 240.400,166.800 240.670,166.800 241.000 C 166.800 241.330,166.991 241.600,167.224 241.600 C 167.457 241.600,167.558 241.744,167.450 241.919 C 167.043 242.577,167.929 243.431,168.463 242.897 C 168.778 242.582,168.802 242.400,168.529 242.400 C 168.291 242.400,167.872 241.856,167.596 241.191 C 167.022 239.804,166.564 239.411,166.204 239.993 M282.460 244.000 C 282.690 244.660,283.041 245.200,283.239 245.200 C 283.438 245.200,283.600 245.436,283.600 245.725 C 283.600 246.013,283.960 246.636,284.400 247.108 C 284.840 247.580,285.200 248.077,285.200 248.211 C 285.200 248.346,285.740 249.241,286.400 250.200 C 287.060 251.159,287.600 252.137,287.600 252.372 C 287.600 252.607,287.780 252.800,288.000 252.800 C 288.220 252.800,288.400 253.070,288.400 253.400 C 288.400 253.730,288.580 254.000,288.800 254.000 C 289.020 254.000,289.200 253.893,289.200 253.762 C 289.200 253.275,287.815 251.200,287.490 251.200 C 287.305 251.200,287.264 251.020,287.400 250.800 C 287.536 250.580,287.476 250.400,287.267 250.400 C 287.058 250.400,286.784 249.991,286.659 249.492 C 286.534 248.993,286.057 248.183,285.600 247.692 C 285.143 247.201,284.911 246.794,285.084 246.787 C 285.258 246.780,285.112 246.555,284.760 246.287 C 284.123 245.802,284.000 245.561,284.000 244.800 C 284.000 244.580,283.709 244.400,283.353 244.400 C 282.904 244.400,282.770 244.156,282.916 243.600 C 283.049 243.091,282.928 242.800,282.583 242.800 C 282.155 242.800,282.129 243.051,282.460 244.000 M170.800 247.930 C 170.800 249.148,171.950 250.976,172.242 250.224 C 172.430 249.741,172.366 249.389,172.072 249.291 C 171.812 249.204,171.600 248.889,171.600 248.590 C 171.600 248.292,171.420 247.936,171.200 247.800 C 170.980 247.664,170.800 247.723,170.800 247.930 M172.873 251.800 C 173.123 252.350,173.463 252.800,173.627 252.800 C 173.791 252.800,173.717 252.351,173.462 251.803 C 173.208 251.255,172.869 250.805,172.709 250.803 C 172.548 250.801,172.622 251.250,172.873 251.800 M289.292 254.875 C 289.379 255.136,289.664 255.421,289.925 255.508 C 290.218 255.606,290.307 255.423,290.157 255.033 C 289.878 254.306,289.052 254.155,289.292 254.875 M174.800 255.600 C 174.800 256.040,174.938 256.400,175.106 256.400 C 175.274 256.400,175.856 257.120,176.400 258.000 C 177.495 259.771,178.186 260.164,177.462 258.603 C 177.208 258.055,176.865 257.605,176.700 257.603 C 176.535 257.601,176.400 257.330,176.400 257.000 C 176.400 256.670,176.220 256.400,176.000 256.400 C 175.780 256.400,175.600 256.040,175.600 255.600 C 175.600 255.160,175.420 254.800,175.200 254.800 C 174.980 254.800,174.800 255.160,174.800 255.600 M290.473 257.000 C 290.948 258.042,291.585 258.367,291.453 257.500 C 291.340 256.755,290.802 256.000,290.385 256.000 C 290.183 256.000,290.222 256.450,290.473 257.000 M291.700 258.900 C 291.791 259.175,292.199 259.464,292.605 259.543 C 293.283 259.675,293.291 259.634,292.700 259.043 C 291.932 258.275,291.470 258.208,291.700 258.900 M177.600 260.311 C 177.600 260.482,177.864 260.998,178.186 261.458 C 178.508 261.919,178.658 262.409,178.519 262.547 C 178.380 262.686,178.477 262.800,178.733 262.800 C 178.990 262.800,179.200 263.076,179.200 263.413 C 179.200 263.749,179.459 264.124,179.775 264.246 C 180.106 264.373,180.246 264.735,180.107 265.099 C 179.946 265.517,180.022 265.633,180.332 265.442 C 180.589 265.283,180.822 265.343,180.850 265.576 C 180.878 265.809,180.947 266.135,181.004 266.300 C 181.061 266.465,181.239 267.005,181.400 267.500 C 181.562 267.995,181.852 268.400,182.047 268.400 C 182.241 268.400,182.400 268.681,182.400 269.024 C 182.400 269.367,182.580 269.536,182.800 269.400 C 183.166 269.174,183.378 269.718,183.239 270.526 C 183.208 270.705,183.508 271.335,183.906 271.926 C 184.303 272.517,184.878 273.495,185.182 274.100 C 185.763 275.256,186.188 275.466,186.600 274.800 C 186.736 274.580,186.567 274.400,186.224 274.400 C 185.881 274.400,185.600 274.147,185.600 273.837 C 185.600 273.164,183.537 269.057,183.104 268.867 C 182.937 268.793,182.800 268.388,182.800 267.967 C 182.800 267.545,182.654 267.200,182.475 267.200 C 182.296 267.200,181.902 266.570,181.600 265.800 C 181.298 265.030,180.904 264.400,180.725 264.400 C 180.546 264.400,180.400 264.130,180.400 263.800 C 180.400 263.470,180.262 263.200,180.094 263.200 C 179.926 263.200,179.477 262.480,179.096 261.600 C 178.487 260.196,177.600 259.431,177.600 260.311 M293.465 260.718 C 293.270 261.020,293.332 261.477,293.615 261.818 C 294.180 262.499,294.800 262.582,294.800 261.976 C 294.800 261.743,294.633 261.656,294.429 261.782 C 294.224 261.909,293.999 261.604,293.928 261.106 C 293.835 260.455,293.705 260.346,293.465 260.718 M295.020 263.176 C 294.785 263.550,294.824 263.808,295.129 263.910 C 295.388 263.996,295.600 264.384,295.600 264.771 C 295.600 265.551,296.925 266.942,297.305 266.561 C 297.438 266.429,297.447 266.699,297.326 267.160 C 297.205 267.622,297.296 268.000,297.526 268.000 C 297.757 268.000,298.062 268.365,298.203 268.810 C 298.651 270.221,300.520 272.800,301.095 272.800 C 301.399 272.800,301.534 272.617,301.396 272.393 C 301.258 272.170,300.996 272.079,300.814 272.191 C 300.377 272.462,299.924 271.246,300.261 270.702 C 300.416 270.451,300.334 270.394,300.062 270.562 C 299.795 270.727,299.600 270.605,299.600 270.273 C 299.600 269.957,299.332 269.476,299.004 269.204 C 298.677 268.932,298.507 268.550,298.628 268.355 C 298.749 268.160,298.657 268.000,298.424 268.000 C 298.191 268.000,298.000 267.623,298.000 267.163 C 298.000 266.662,297.679 266.241,297.200 266.116 C 296.499 265.933,296.197 265.286,296.353 264.300 C 296.379 264.135,296.233 264.000,296.029 264.000 C 295.825 264.000,295.596 263.685,295.520 263.300 C 295.404 262.716,295.321 262.696,295.020 263.176 M300.800 273.600 C 300.800 273.820,300.950 274.000,301.132 274.000 C 301.315 274.000,301.720 274.495,302.032 275.100 C 302.888 276.757,304.000 277.909,304.000 277.137 C 304.000 276.800,303.644 276.202,303.209 275.809 C 302.775 275.415,302.532 274.909,302.671 274.685 C 302.810 274.460,302.736 274.392,302.507 274.534 C 302.278 274.675,301.997 274.433,301.883 273.996 C 301.672 273.187,300.800 272.869,300.800 273.600 M187.435 277.143 C 187.280 277.394,187.343 277.600,187.576 277.600 C 187.809 277.600,188.006 278.005,188.013 278.500 C 188.027 279.510,189.054 281.079,189.445 280.688 C 189.874 280.259,189.239 279.129,188.741 279.436 C 188.456 279.613,188.384 279.549,188.556 279.271 C 188.710 279.023,188.584 278.339,188.277 277.752 C 187.920 277.071,187.616 276.851,187.435 277.143 M304.816 279.200 C 304.817 279.530,305.170 280.250,305.600 280.800 C 306.030 281.350,306.386 281.959,306.391 282.153 C 306.399 282.483,307.943 284.000,308.270 284.000 C 308.433 284.000,307.154 281.921,306.794 281.600 C 306.670 281.490,306.174 280.770,305.691 280.000 C 305.209 279.230,304.814 278.870,304.816 279.200 M189.600 281.600 C 189.600 281.820,189.780 282.000,190.000 282.000 C 190.220 282.000,190.400 282.270,190.400 282.600 C 190.400 282.930,190.580 283.200,190.800 283.200 C 191.339 283.200,191.284 282.744,190.643 281.900 C 190.052 281.121,189.600 280.991,189.600 281.600 M192.000 285.800 C 192.000 286.130,192.180 286.400,192.400 286.400 C 192.620 286.400,192.800 286.130,192.800 285.800 C 192.800 285.470,192.620 285.200,192.400 285.200 C 192.180 285.200,192.000 285.470,192.000 285.800 M193.232 288.100 C 193.214 288.485,193.470 288.800,193.800 288.800 C 194.130 288.800,194.400 288.609,194.400 288.376 C 194.400 288.143,194.235 288.055,194.034 288.179 C 193.833 288.303,193.577 288.179,193.466 287.902 C 193.344 287.599,193.251 287.678,193.232 288.100 M194.657 290.395 C 194.985 291.052,195.142 291.770,195.006 291.990 C 194.862 292.223,195.019 292.291,195.379 292.153 C 196.034 291.902,196.251 290.800,195.647 290.800 C 195.452 290.800,195.199 290.440,195.084 290.000 C 194.969 289.560,194.692 289.200,194.468 289.200 C 194.235 289.200,194.315 289.709,194.657 290.395 M313.002 291.997 C 312.867 292.215,312.941 292.710,313.166 293.097 C 313.517 293.700,313.577 293.644,313.588 292.700 C 313.601 291.550,313.416 291.328,313.002 291.997 M196.800 293.976 C 196.800 294.183,196.983 294.466,197.207 294.604 C 197.430 294.742,197.509 295.023,197.383 295.228 C 197.256 295.432,197.354 295.600,197.600 295.600 C 197.846 295.600,197.956 295.748,197.844 295.928 C 197.579 296.357,199.068 298.800,199.594 298.800 C 200.208 298.800,200.080 298.006,199.425 297.754 C 199.109 297.633,198.948 297.279,199.068 296.967 C 199.188 296.655,199.120 296.400,198.917 296.400 C 198.715 296.400,198.302 295.770,198.000 295.000 C 197.490 293.699,196.800 293.111,196.800 293.976 M315.830 296.751 C 315.653 297.039,315.763 297.456,316.088 297.727 C 316.835 298.349,318.202 300.518,318.089 300.900 C 318.040 301.065,318.152 301.200,318.337 301.200 C 318.523 301.200,319.091 302.010,319.600 303.000 C 320.542 304.831,321.067 305.267,321.067 304.217 C 321.067 303.897,320.827 303.542,320.533 303.430 C 320.240 303.317,320.000 302.878,320.000 302.455 C 320.000 302.031,319.553 301.260,319.007 300.742 C 318.461 300.224,318.011 299.575,318.007 299.300 C 318.003 299.025,317.809 298.800,317.576 298.800 C 317.343 298.800,317.264 298.620,317.400 298.400 C 317.536 298.180,317.484 298.000,317.285 298.000 C 317.085 298.000,316.746 297.606,316.532 297.124 C 316.250 296.493,316.054 296.389,315.830 296.751 M199.855 299.800 C 199.982 300.130,200.257 300.400,200.466 300.400 C 200.676 300.400,200.740 300.573,200.609 300.785 C 200.478 300.997,200.737 301.537,201.185 301.985 C 201.814 302.614,202.000 302.663,202.000 302.200 C 202.000 301.870,201.859 301.600,201.688 301.600 C 201.516 301.600,201.172 301.060,200.922 300.400 C 200.673 299.740,200.280 299.200,200.047 299.200 C 199.815 299.200,199.729 299.470,199.855 299.800 M321.275 305.625 C 321.371 305.914,321.686 306.229,321.975 306.325 C 322.275 306.425,322.425 306.275,322.325 305.975 C 322.229 305.686,321.914 305.371,321.625 305.275 C 321.325 305.175,321.175 305.325,321.275 305.625 M203.733 306.313 C 203.733 307.143,204.732 308.209,205.119 307.793 C 205.274 307.627,205.175 307.410,204.900 307.312 C 204.625 307.214,204.400 306.889,204.400 306.590 C 204.400 306.292,204.250 305.955,204.067 305.841 C 203.883 305.728,203.733 305.940,203.733 306.313 M205.148 308.937 C 205.393 309.232,205.506 309.594,205.400 309.740 C 205.294 309.887,205.405 309.841,205.648 309.638 C 206.139 309.229,205.791 308.400,205.127 308.400 C 204.837 308.400,204.843 308.570,205.148 308.937 M206.000 310.600 C 206.000 310.930,206.180 311.200,206.400 311.200 C 206.620 311.200,206.800 310.930,206.800 310.600 C 206.800 310.270,206.620 310.000,206.400 310.000 C 206.180 310.000,206.000 310.270,206.000 310.600 M207.443 312.967 C 207.576 313.315,207.861 313.600,208.076 313.600 C 208.602 313.600,208.273 312.691,207.675 312.492 C 207.382 312.394,207.293 312.577,207.443 312.967 M208.623 315.063 C 209.165 315.647,209.726 316.007,209.871 315.863 C 210.015 315.718,209.944 315.600,209.713 315.600 C 209.482 315.600,209.199 315.240,209.084 314.800 C 208.969 314.360,208.597 314.000,208.257 314.000 C 207.791 314.000,207.881 314.262,208.623 315.063 M327.867 315.067 C 327.469 315.465,327.545 316.400,327.975 316.400 C 328.181 316.400,328.323 316.040,328.290 315.600 C 328.222 314.696,328.229 314.705,327.867 315.067 M210.100 317.700 C 210.155 317.975,210.380 318.328,210.600 318.485 C 210.820 318.642,211.008 318.912,211.017 319.085 C 211.086 320.384,213.200 322.819,213.200 321.600 C 213.200 321.380,213.054 321.200,212.875 321.200 C 212.696 321.200,212.302 320.570,212.000 319.800 C 211.698 319.030,211.304 318.400,211.125 318.400 C 210.946 318.400,210.800 318.130,210.800 317.800 C 210.800 317.470,210.620 317.200,210.400 317.200 C 210.180 317.200,210.045 317.425,210.100 317.700 M329.200 318.138 C 329.200 318.502,329.380 318.800,329.600 318.800 C 329.820 318.800,330.000 319.070,330.000 319.400 C 330.000 319.730,330.315 320.317,330.700 320.705 C 331.085 321.094,331.621 321.904,331.891 322.505 C 332.420 323.683,333.067 323.965,333.067 323.018 C 333.067 322.697,332.955 322.504,332.818 322.589 C 332.682 322.673,332.336 322.214,332.050 321.569 C 331.765 320.924,331.366 320.497,331.165 320.621 C 330.964 320.746,330.800 320.414,330.800 319.886 C 330.800 319.357,330.440 318.598,330.000 318.200 C 329.281 317.549,329.200 317.543,329.200 318.138 M212.800 323.200 C 212.800 323.420,213.070 323.600,213.400 323.600 C 213.730 323.600,214.000 323.420,214.000 323.200 C 214.000 322.980,213.730 322.800,213.400 322.800 C 213.070 322.800,212.800 322.980,212.800 323.200 M213.780 324.432 C 213.596 324.730,213.642 324.821,213.896 324.664 C 214.346 324.386,214.931 325.465,214.611 325.983 C 214.505 326.153,214.770 326.611,215.200 327.000 C 215.630 327.389,215.897 327.842,215.795 328.008 C 215.581 328.354,216.723 329.410,217.005 329.128 C 217.259 328.875,216.275 326.807,215.900 326.803 C 215.735 326.801,215.600 326.522,215.600 326.183 C 215.600 325.223,214.152 323.830,213.780 324.432 M333.033 324.347 C 332.763 324.784,334.312 326.221,334.669 325.864 C 334.814 325.719,334.723 325.600,334.467 325.600 C 334.210 325.600,334.021 325.465,334.047 325.300 C 334.226 324.166,333.542 323.523,333.033 324.347 M334.400 326.800 C 334.400 327.020,334.689 327.200,335.043 327.200 C 335.463 327.200,335.602 327.418,335.444 327.830 C 335.311 328.176,335.472 328.729,335.801 329.058 C 336.654 329.911,336.635 328.514,335.777 327.289 C 335.130 326.365,334.400 326.106,334.400 326.800 M336.830 329.900 C 336.814 330.615,336.980 331.200,337.200 331.200 C 337.420 331.200,337.600 331.470,337.600 331.800 C 337.600 332.130,337.780 332.400,338.000 332.400 C 338.220 332.400,338.400 332.670,338.400 333.000 C 338.400 333.330,338.536 333.600,338.702 333.600 C 338.869 333.600,339.244 334.140,339.536 334.800 C 340.100 336.075,340.667 336.384,340.667 335.418 C 340.667 335.097,340.536 334.916,340.376 335.015 C 340.216 335.114,339.981 334.779,339.854 334.271 C 339.726 333.763,339.261 332.931,338.819 332.422 C 338.378 331.913,338.132 331.295,338.272 331.048 C 338.413 330.802,338.369 330.745,338.174 330.923 C 337.979 331.101,337.604 330.651,337.340 329.923 L 336.861 328.600 336.830 329.900 M217.321 330.700 C 218.206 332.716,218.685 333.319,219.167 333.021 C 219.526 332.799,219.528 332.595,219.174 332.169 C 218.918 331.861,218.522 331.725,218.293 331.866 C 218.054 332.014,217.996 331.931,218.157 331.670 C 218.475 331.154,217.761 329.600,217.205 329.600 C 217.004 329.600,217.056 330.095,217.321 330.700 M219.200 333.805 C 219.200 334.158,220.167 335.722,220.900 336.555 C 221.835 337.618,221.782 337.217,220.726 335.238 C 219.979 333.838,219.200 333.107,219.200 333.805 M341.061 336.273 C 340.570 336.763,340.799 337.600,341.424 337.600 C 341.767 337.600,341.936 337.780,341.800 338.000 C 341.664 338.220,341.743 338.400,341.976 338.400 C 342.519 338.400,342.510 338.304,341.861 337.052 C 341.564 336.480,341.204 336.129,341.061 336.273 M221.600 338.200 C 221.600 338.530,221.759 338.800,221.953 338.800 C 222.148 338.800,222.411 339.197,222.537 339.683 C 222.664 340.168,222.885 340.448,223.028 340.306 C 223.336 339.997,222.339 337.600,221.902 337.600 C 221.736 337.600,221.600 337.870,221.600 338.200 M342.400 339.400 C 342.400 339.730,342.715 339.986,343.100 339.968 C 343.522 339.949,343.601 339.856,343.298 339.734 C 343.021 339.623,342.897 339.367,343.021 339.166 C 343.145 338.965,343.057 338.800,342.824 338.800 C 342.591 338.800,342.400 339.070,342.400 339.400 M343.200 340.757 C 343.200 340.954,343.485 341.224,343.833 341.357 C 344.811 341.733,344.908 341.651,344.257 341.000 C 343.577 340.320,343.200 340.233,343.200 340.757 M224.800 343.130 C 224.800 343.909,225.864 346.002,226.127 345.740 C 226.556 345.311,226.446 344.324,226.000 344.600 C 225.780 344.736,225.600 344.487,225.600 344.047 C 225.600 343.607,225.420 343.136,225.200 343.000 C 224.980 342.864,224.800 342.923,224.800 343.130 M227.673 348.600 C 227.923 349.150,228.280 349.600,228.464 349.600 C 228.942 349.600,228.859 349.111,228.243 348.300 C 227.467 347.277,227.147 347.445,227.673 348.600 M348.300 348.265 C 348.575 348.376,348.800 348.790,348.800 349.184 C 348.800 349.984,349.876 351.057,350.276 350.657 C 350.418 350.516,350.313 350.400,350.043 350.400 C 349.773 350.400,349.646 350.249,349.760 350.065 C 350.043 349.606,348.867 347.993,348.277 348.032 C 347.932 348.054,347.938 348.119,348.300 348.265 M228.671 350.751 C 228.978 351.924,230.400 353.167,230.400 352.262 C 230.400 351.898,230.122 351.600,229.782 351.600 C 229.428 351.600,229.215 351.319,229.282 350.941 C 229.347 350.579,229.189 350.209,228.931 350.119 C 228.636 350.015,228.540 350.248,228.671 350.751 M350.400 351.591 C 350.400 352.302,351.982 354.800,352.433 354.800 C 353.040 354.800,352.846 353.993,352.177 353.736 C 351.834 353.604,351.642 353.267,351.750 352.986 C 351.858 352.705,351.598 352.160,351.173 351.776 C 350.638 351.292,350.400 351.235,350.400 351.591 M230.255 353.800 C 230.382 354.130,230.657 354.400,230.866 354.400 C 231.076 354.400,231.119 354.608,230.962 354.862 C 230.785 355.148,230.852 355.215,231.138 355.038 C 231.440 354.852,231.600 355.099,231.600 355.754 C 231.600 356.335,231.973 357.016,232.489 357.377 C 232.978 357.720,233.203 358.006,232.989 358.013 C 232.775 358.020,232.883 358.245,233.229 358.513 C 233.575 358.781,234.065 359.360,234.317 359.800 C 234.569 360.240,234.781 360.375,234.788 360.100 C 234.795 359.825,234.455 359.255,234.033 358.833 C 233.612 358.412,233.361 357.972,233.477 357.856 C 233.593 357.741,233.346 357.141,232.929 356.523 C 232.512 355.905,231.922 354.905,231.618 354.300 C 231.046 353.164,229.841 352.721,230.255 353.800 M352.400 355.600 C 352.400 355.820,352.552 356.000,352.737 356.000 C 352.923 356.000,353.491 356.810,354.000 357.800 C 354.509 358.790,355.077 359.600,355.263 359.600 C 355.448 359.600,355.600 359.870,355.600 360.200 C 355.600 360.530,355.774 360.800,355.987 360.800 C 356.456 360.800,356.030 359.514,355.429 359.115 C 355.193 358.958,354.991 358.688,354.980 358.515 C 354.927 357.656,354.304 356.412,354.017 356.590 C 353.838 356.700,353.597 356.433,353.483 355.996 C 353.272 355.187,352.400 354.869,352.400 355.600 M234.643 361.367 C 234.776 361.715,235.061 362.000,235.276 362.000 C 235.802 362.000,235.473 361.091,234.875 360.892 C 234.582 360.794,234.493 360.977,234.643 361.367 M356.400 362.000 C 356.400 362.220,356.664 362.400,356.987 362.400 C 357.345 362.400,357.485 362.635,357.345 363.000 C 357.180 363.430,357.382 363.598,358.057 363.594 C 358.813 363.589,358.881 363.511,358.400 363.200 C 358.070 362.987,357.969 362.809,358.176 362.806 C 358.605 362.799,357.161 361.632,356.700 361.613 C 356.535 361.606,356.400 361.780,356.400 362.000 M235.600 362.900 C 235.600 363.212,235.875 363.467,236.211 363.467 C 236.903 363.467,236.800 362.733,236.075 362.492 C 235.814 362.405,235.600 362.588,235.600 362.900 M236.500 364.276 C 236.890 364.378,237.206 364.844,237.213 365.329 C 237.228 366.377,238.270 367.863,238.693 367.441 C 238.858 367.275,238.676 366.962,238.288 366.745 C 237.900 366.528,237.685 366.186,237.810 365.984 C 238.179 365.386,237.229 363.996,236.486 364.046 C 235.853 364.089,235.854 364.107,236.500 364.276 M358.000 364.214 C 358.000 364.522,359.067 365.600,359.371 365.600 C 359.916 365.600,359.531 364.791,358.800 364.400 C 358.360 364.165,358.000 364.081,358.000 364.214 M359.600 366.600 C 359.600 366.930,359.780 367.200,360.000 367.200 C 360.220 367.200,360.400 366.930,360.400 366.600 C 360.400 366.270,360.220 366.000,360.000 366.000 C 359.780 366.000,359.600 366.270,359.600 366.600 M360.400 367.925 C 360.400 368.103,360.716 368.598,361.103 369.025 C 361.489 369.451,362.026 370.295,362.294 370.900 C 362.842 372.134,363.603 372.368,363.594 371.300 C 363.589 370.702,363.531 370.687,363.200 371.200 C 362.879 371.697,362.811 371.662,362.806 370.996 C 362.803 370.554,362.361 369.718,361.824 369.139 C 361.287 368.560,360.957 367.977,361.090 367.843 C 361.224 367.709,361.123 367.600,360.867 367.600 C 360.610 367.600,360.400 367.746,360.400 367.925 M238.908 368.772 C 238.940 369.197,239.109 369.456,239.283 369.349 C 239.727 369.075,239.680 368.000,239.225 368.000 C 239.019 368.000,238.876 368.348,238.908 368.772 M240.400 371.429 C 240.400 371.727,241.475 372.800,241.775 372.800 C 241.902 372.800,241.782 372.440,241.507 372.000 C 241.038 371.249,240.400 370.920,240.400 371.429 M363.200 372.683 C 363.200 372.965,365.000 375.400,365.310 375.537 C 365.480 375.612,365.876 376.287,366.190 377.037 C 366.795 378.485,367.604 378.867,367.594 377.700 C 367.589 377.102,367.531 377.087,367.200 377.600 C 366.883 378.091,366.811 378.045,366.806 377.349 C 366.803 376.881,366.532 376.276,366.204 376.004 C 365.877 375.732,365.687 375.383,365.783 375.228 C 365.879 375.073,365.607 374.693,365.179 374.385 C 364.750 374.076,364.400 373.533,364.400 373.178 C 364.400 372.824,364.130 372.533,363.800 372.533 C 363.470 372.533,363.200 372.601,363.200 372.683 M242.011 373.876 C 242.017 374.274,242.557 375.307,243.211 376.171 C 243.865 377.035,244.400 378.051,244.400 378.428 C 244.400 378.806,244.681 379.222,245.025 379.354 C 245.369 379.486,245.555 379.749,245.438 379.938 C 245.164 380.381,246.250 381.883,246.595 381.538 C 246.832 381.301,246.122 379.680,245.570 379.200 C 245.444 379.090,244.904 378.190,244.370 377.200 C 243.837 376.210,243.265 375.340,243.100 375.267 C 242.935 375.193,242.800 374.799,242.800 374.390 C 242.800 373.982,242.620 373.536,242.400 373.400 C 242.180 373.264,242.005 373.478,242.011 373.876 M367.200 379.017 C 367.200 379.602,368.739 380.823,368.981 380.430 C 369.128 380.194,369.057 380.000,368.824 380.000 C 368.591 380.000,368.400 379.730,368.400 379.400 C 368.400 379.070,368.130 378.800,367.800 378.800 C 367.470 378.800,367.200 378.898,367.200 379.017 M368.800 381.600 C 368.800 381.820,368.936 382.000,369.102 382.000 C 369.269 382.000,369.644 382.540,369.936 383.200 C 370.234 383.873,370.760 384.386,371.134 384.368 C 371.553 384.349,371.614 384.262,371.298 384.134 C 371.021 384.023,370.898 383.766,371.023 383.563 C 371.148 383.360,370.969 383.086,370.625 382.954 C 370.281 382.822,370.000 382.374,370.000 381.957 C 370.000 381.541,369.730 381.200,369.400 381.200 C 369.070 381.200,368.800 381.380,368.800 381.600 M246.678 382.255 C 246.538 382.395,246.778 383.008,247.212 383.617 C 247.645 384.225,248.000 385.021,248.000 385.385 C 248.000 385.749,248.180 385.936,248.400 385.800 C 248.620 385.664,248.800 385.934,248.800 386.400 C 248.800 386.866,248.980 387.136,249.200 387.000 C 249.420 386.864,249.600 387.123,249.600 387.576 C 249.600 388.042,249.861 388.400,250.200 388.400 C 250.817 388.400,251.035 387.771,250.500 387.533 C 250.230 387.413,249.022 385.311,247.840 382.903 C 247.383 381.972,247.112 381.821,246.678 382.255 M371.200 385.183 C 371.200 385.431,371.560 386.020,372.000 386.492 C 372.440 386.964,372.800 387.587,372.800 387.875 C 372.800 388.164,373.115 388.397,373.500 388.394 C 374.098 388.389,374.113 388.331,373.600 388.000 C 373.270 387.787,373.131 387.609,373.292 387.606 C 373.452 387.603,373.264 387.027,372.873 386.327 C 372.144 385.023,371.200 384.378,371.200 385.183 M373.600 389.157 C 373.600 389.354,373.885 389.624,374.233 389.757 C 375.211 390.133,375.308 390.051,374.657 389.400 C 373.977 388.720,373.600 388.633,373.600 389.157 M251.200 390.400 C 251.200 391.147,251.307 391.253,251.680 390.880 C 252.053 390.507,252.053 390.293,251.680 389.920 C 251.307 389.547,251.200 389.653,251.200 390.400 M374.878 390.648 C 375.251 390.759,375.463 391.091,375.351 391.385 C 375.238 391.679,375.353 392.047,375.606 392.204 C 375.915 392.395,376.023 392.179,375.934 391.548 C 375.849 390.956,375.504 390.578,375.000 390.527 C 374.420 390.468,374.386 390.501,374.878 390.648 M252.988 393.220 C 252.607 393.835,253.128 394.232,253.642 393.718 C 253.929 393.431,253.936 393.207,253.662 393.039 C 253.439 392.900,253.135 392.982,252.988 393.220 M376.800 394.000 C 376.800 394.220,376.980 394.400,377.200 394.400 C 377.420 394.400,377.600 394.738,377.600 395.151 C 377.600 395.922,378.657 397.077,379.025 396.708 C 379.138 396.595,378.819 395.857,378.316 395.068 C 377.412 393.652,376.800 393.221,376.800 394.000 M254.612 396.119 C 254.314 396.806,255.512 398.222,255.988 397.746 C 256.092 397.642,255.978 397.431,255.735 397.278 C 255.492 397.125,255.210 396.640,255.108 396.200 C 254.937 395.455,254.902 395.450,254.612 396.119 M379.200 398.000 C 379.200 398.220,379.481 398.400,379.824 398.400 C 380.167 398.400,380.336 398.580,380.200 398.800 C 380.064 399.020,380.143 399.200,380.376 399.200 C 380.940 399.200,380.913 398.673,380.320 398.080 C 379.736 397.496,379.200 397.458,379.200 398.000 M256.006 398.700 C 256.024 399.577,256.788 400.159,256.794 399.300 C 256.797 398.805,256.620 398.400,256.400 398.400 C 256.180 398.400,256.003 398.535,256.006 398.700 " stroke="none" fill="#f4643c" fill-rule="evenodd"></path><path id="path3" d="M18.998 200.000 C 18.998 310.110,19.044 355.155,19.100 300.100 C 19.156 245.045,19.156 154.955,19.100 99.900 C 19.044 44.845,18.998 89.890,18.998 200.000 " stroke="none" fill="#fc8444" fill-rule="evenodd"></path><path id="path4" d="M238.923 8.697 C 238.441 9.292,238.115 9.848,238.199 9.932 C 238.371 10.104,240.400 8.156,240.400 7.818 C 240.400 7.300,239.735 7.695,238.923 8.697 M226.877 22.426 C 226.309 23.335,226.612 23.445,227.432 22.626 C 227.748 22.310,227.861 21.961,227.683 21.851 C 227.505 21.742,227.143 22.000,226.877 22.426 M340.675 41.522 C 340.084 42.139,339.600 42.782,339.600 42.950 C 339.600 43.259,339.964 42.916,341.362 41.288 C 342.451 40.019,341.951 40.189,340.675 41.522 M209.221 42.212 C 208.683 42.742,208.359 43.293,208.502 43.436 C 208.759 43.692,209.280 43.258,210.349 41.898 C 211.156 40.871,210.357 41.094,209.221 42.212 M202.659 49.572 C 201.391 50.893,200.564 52.054,200.791 52.195 C 201.016 52.334,201.200 52.281,201.200 52.078 C 201.200 51.875,202.120 50.774,203.244 49.632 C 204.369 48.490,205.209 47.476,205.112 47.379 C 205.015 47.282,203.911 48.269,202.659 49.572 M196.049 57.040 C 195.112 58.052,194.445 58.978,194.565 59.099 C 194.804 59.338,198.000 55.989,198.000 55.500 C 198.000 54.989,197.804 55.144,196.049 57.040 M191.100 62.814 C 189.499 64.561,189.751 65.076,191.400 63.427 C 192.170 62.657,192.800 61.931,192.800 61.813 C 192.800 61.302,192.120 61.703,191.100 62.814 M316.413 67.491 C 315.889 68.082,315.903 68.123,316.546 67.876 C 316.942 67.724,317.341 67.600,317.433 67.600 C 317.525 67.600,317.600 67.420,317.600 67.200 C 317.600 66.612,317.081 66.739,316.413 67.491 M185.036 69.387 C 182.530 72.178,182.463 72.808,184.936 70.335 C 186.181 69.089,187.200 67.964,187.200 67.835 C 187.200 67.259,186.485 67.772,185.036 69.387 M180.667 74.667 C 180.284 75.049,180.338 75.600,180.757 75.600 C 180.954 75.600,181.218 75.330,181.345 75.000 C 181.579 74.390,181.153 74.181,180.667 74.667 M308.618 75.818 C 307.183 77.254,307.345 77.594,308.800 76.200 C 309.460 75.568,310.000 74.994,310.000 74.925 C 310.000 74.596,309.548 74.888,308.618 75.818 M179.200 75.981 C 179.200 76.191,178.384 77.167,177.387 78.150 C 176.168 79.352,175.730 80.033,176.049 80.230 C 176.348 80.415,176.418 80.352,176.238 80.062 C 176.081 79.808,176.115 79.600,176.313 79.600 C 176.880 79.600,180.401 76.134,180.119 75.853 C 179.740 75.473,179.200 75.549,179.200 75.981 M172.634 83.447 C 171.332 84.851,170.420 86.000,170.607 86.000 C 170.974 86.000,175.600 81.388,175.600 81.022 C 175.600 80.451,174.816 81.092,172.634 83.447 M167.000 89.883 C 166.120 90.906,165.130 92.034,164.800 92.389 C 163.206 94.104,162.938 94.567,163.876 93.983 C 164.358 93.683,164.970 93.030,165.236 92.533 C 165.503 92.035,165.873 91.722,166.060 91.837 C 166.247 91.953,166.400 91.894,166.400 91.707 C 166.400 91.520,167.030 90.699,167.800 89.882 C 168.570 89.066,169.200 88.309,169.200 88.199 C 169.200 87.628,168.435 88.214,167.000 89.883 M162.071 95.720 C 160.300 97.327,159.593 98.198,159.959 98.320 C 160.355 98.452,161.534 97.426,162.749 95.893 C 163.369 95.111,162.880 94.986,162.071 95.720 M160.198 165.967 C 160.200 224.797,160.270 232.552,160.800 232.697 C 161.243 232.818,161.269 232.768,160.901 232.508 C 160.507 232.228,160.381 218.245,160.299 165.777 L 160.196 99.400 160.198 165.967 M261.260 126.279 C 259.996 127.588,260.442 127.922,261.732 126.632 C 262.291 126.073,262.625 125.546,262.474 125.460 C 262.323 125.375,261.777 125.744,261.260 126.279 M273.067 227.867 C 272.644 228.290,272.754 228.697,273.355 228.927 C 273.744 229.077,273.849 228.910,273.708 228.370 C 273.484 227.514,273.448 227.486,273.067 227.867 M232.400 357.938 C 232.400 358.124,232.760 358.602,233.200 359.000 C 233.640 359.398,234.000 359.535,234.000 359.305 C 234.000 359.074,233.719 358.778,233.375 358.646 C 233.031 358.514,232.861 358.224,232.998 358.003 C 233.135 357.781,233.057 357.600,232.824 357.600 C 232.591 357.600,232.400 357.752,232.400 357.938 " stroke="none" fill="#f56c3c" fill-rule="evenodd"></path></g></svg>